<?xml version="1.0" encoding="utf-8"?>
<!-- Generator: Adobe Illustrator 25.0.1, SVG Export Plug-In . SVG Version: 6.00 Build 0)  -->
<svg version="1.1" id="Calque_1" xmlns="http://www.w3.org/2000/svg" xmlns:xlink="http://www.w3.org/1999/xlink" x="0px" y="0px"
	 viewBox="0 0 500.24 258.32" style="enable-background:new 0 0 500.24 258.32;" xml:space="preserve">
<style type="text/css">
	.st0{fill:#2E3437;}
	.st1{fill:#D4EDF8;}
	.st2{fill:url(#Tracé_694_1_);}
	.st3{fill:none;}
	.st4{fill:#808184;}
	.st5{fill:#111E72;}
	.st6{fill:#C1C2C4;}
	.st7{fill:#E39D2B;}
	.st8{fill:url(#Tracé_722_1_);}
	.st9{fill:url(#Tracé_723_1_);}
	.st10{fill:url(#Tracé_724_1_);}
	.st11{fill:#F2F0F0;}
	.st12{fill:#E39E2C;}
</style>
<g id="Groupe_381" transform="translate(0 0)">
	<path id="Tracé_692" class="st0" d="M167.76,192.44h191.56l-0.04-0.06H167.76V192.44z"/>
	<path id="Tracé_693" class="st1" d="M95.6,92.4c3.05-4.85,7.21-8.89,12.14-11.8l0,0c0,0-37.14,25.55-50.15,54.1
		c0.96-0.23,1.65-0.4,2.09-0.53C64.79,132.64,88.91,103.39,95.6,92.4z"/>
	
		<linearGradient id="Tracé_694_1_" gradientUnits="userSpaceOnUse" x1="1.4342" y1="397.7215" x2="1.4342" y2="396.7215" gradientTransform="matrix(341.4412 0 0 -184.2156 -163.6592 73274.6719)">
		<stop  offset="0" style="stop-color:#4B3991"/>
		<stop  offset="1" style="stop-color:#352A60"/>
	</linearGradient>
	<path id="Tracé_694" class="st2" d="M484.43,8.17H167.65c-6.81,0.01-12.33,5.52-12.33,12.33v135.73h0.04v36.04h12.16v0.05
		l0.24,0.05h192.63l0.39-0.22c0.18-0.1,0.35-0.2,0.53-0.29s0.36-0.19,0.55-0.28s0.36-0.18,0.53-0.27s0.37-0.18,0.56-0.26
		s0.36-0.17,0.54-0.25s0.38-0.16,0.58-0.25s0.36-0.16,0.54-0.23s0.39-0.15,0.59-0.23c0.18-0.07,0.36-0.14,0.54-0.2
		c0.2-0.07,0.4-0.14,0.61-0.21c0.18-0.06,0.36-0.12,0.54-0.18c0.2-0.07,0.41-0.13,0.61-0.19c0.18-0.05,0.36-0.11,0.54-0.16
		c0.21-0.06,0.42-0.11,0.63-0.17c0.18-0.05,0.36-0.1,0.54-0.14c0.21-0.05,0.43-0.1,0.64-0.15c0.18-0.04,0.36-0.08,0.54-0.12
		c0.22-0.05,0.43-0.08,0.65-0.13c0.18-0.03,0.36-0.07,0.54-0.1c0.22-0.04,0.44-0.07,0.67-0.11c0.18-0.03,0.35-0.06,0.53-0.08
		c0.23-0.03,0.47-0.06,0.7-0.09c0.17-0.02,0.33-0.04,0.5-0.06c0.24-0.02,0.49-0.04,0.73-0.06c0.16-0.01,0.32-0.03,0.48-0.04
		c0.28-0.02,0.55-0.03,0.82-0.04c0.13-0.01,0.26-0.02,0.39-0.02c0.41-0.01,0.81-0.02,1.22-0.02c6.04-0.01,11.97,1.56,17.21,4.55
		h89.61c6.81-0.01,12.33-5.52,12.33-12.33V20.5C496.75,13.69,491.24,8.18,484.43,8.17z"/>
	<path id="Tracé_695" d="M98.17,214.54c-0.05-0.16-0.1-0.31-0.15-0.46c-3.75-11.52-14.48-19.33-26.6-19.34
		c-0.33,0-0.65,0.01-0.98,0.02c-0.11,0-0.22,0.01-0.33,0.02c-0.22,0.01-0.43,0.02-0.65,0.03c-0.14,0.01-0.27,0.02-0.41,0.03
		c-0.19,0.02-0.38,0.03-0.57,0.05c-0.14,0.01-0.28,0.03-0.43,0.05c-0.18,0.02-0.36,0.04-0.54,0.07c-0.15,0.02-0.3,0.05-0.45,0.07
		c-0.17,0.03-0.34,0.05-0.51,0.08s-0.31,0.06-0.46,0.09s-0.33,0.06-0.49,0.1s-0.31,0.07-0.47,0.11s-0.32,0.07-0.48,0.11
		s-0.32,0.08-0.47,0.12s-0.31,0.08-0.46,0.12s-0.31,0.09-0.47,0.14s-0.3,0.09-0.46,0.14s-0.31,0.1-0.46,0.16s-0.3,0.1-0.45,0.16
		s-0.3,0.11-0.46,0.17s-0.3,0.11-0.45,0.17s-0.3,0.13-0.45,0.19s-0.29,0.12-0.44,0.19s-0.3,0.14-0.45,0.21s-0.29,0.13-0.43,0.2
		s-0.3,0.15-0.44,0.22s-0.28,0.14-0.43,0.22s-0.29,0.16-0.43,0.24s-0.28,0.16-0.42,0.24s-0.28,0.17-0.42,0.25
		c-0.11,0.07-0.22,0.13-0.33,0.2l-0.27,0.17l0,0c-5.42,3.41-9.5,8.59-11.55,14.66c-0.05,0.15-0.1,0.31-0.15,0.46
		c-4.7,14.72,3.42,30.46,18.14,35.16c14.72,4.7,30.46-3.42,35.16-18.14c0.5-1.56,0.86-3.16,1.08-4.79c0.17-1.23,0.25-2.47,0.25-3.71
		C99.4,219.94,98.99,217.18,98.17,214.54z M88.33,224.97c-1.25,9.34-9.83,15.89-19.17,14.64c-7.62-1.02-13.62-7.02-14.64-14.64
		c-0.1-0.75-0.15-1.51-0.15-2.26c0-2.96,0.77-5.87,2.23-8.44c0.09-0.15,0.17-0.31,0.27-0.46c1.29-2.11,3.03-3.91,5.09-5.29h-0.01
		l0.42-0.26l0.01,0l0.08-0.05c0.17-0.11,0.35-0.2,0.53-0.3c0.15-0.09,0.3-0.18,0.46-0.26c0.19-0.1,0.39-0.19,0.59-0.29
		c0.16-0.08,0.32-0.16,0.48-0.23c0.2-0.09,0.4-0.16,0.6-0.24c0.17-0.07,0.33-0.14,0.5-0.2c0.2-0.07,0.41-0.13,0.62-0.2
		c0.17-0.05,0.34-0.11,0.51-0.16c0.21-0.06,0.43-0.11,0.65-0.16c0.17-0.04,0.33-0.09,0.5-0.12c0.23-0.05,0.46-0.08,0.69-0.12
		c0.16-0.03,0.32-0.06,0.48-0.08c0.26-0.04,0.52-0.06,0.79-0.08c0.13-0.01,0.26-0.03,0.4-0.04c0.4-0.03,0.79-0.04,1.19-0.04
		c6.02,0,11.59,3.17,14.66,8.34c0.09,0.15,0.18,0.31,0.27,0.46c1.4,2.52,2.13,5.36,2.13,8.25
		C88.48,223.46,88.43,224.22,88.33,224.97L88.33,224.97z"/>
	<g id="Groupe_380" transform="translate(86.315 78.911)">
		<path id="Tracé_696" class="st3" d="M53.72,8.17l-7.49,0.09c-0.17,0-0.34,0.02-0.51,0.04C21.25,12.5,12.85,24.53,8.67,33.21
			c-0.94,1.95-1.7,3.81-2.38,5.46l-0.42,1.01c-1.2,2.82-1.99,5.81-2.35,8.85c-0.26,1.99,0.3,3.99,1.56,5.55
			c0.65,0.79,1.61,1.26,2.64,1.29h28.29c0.38,0.05,0.76,0.07,1.14,0.07c0.35,0,0.69-0.02,1.03-0.07h11.53
			c5.26,0,9.53-6.11,9.53-13.62V16.03C59.25,11.69,56.77,8.17,53.72,8.17z"/>
	</g>
	<path id="Tracé_697" class="st4" d="M71.42,215.18c-4.16,0-7.53,3.37-7.53,7.53c0,0.33,0.02,0.67,0.07,1
		c0.55,4.12,4.34,7.01,8.46,6.46c3.36-0.45,6.01-3.1,6.46-6.46c0.04-0.33,0.07-0.67,0.07-1C78.95,218.55,75.58,215.18,71.42,215.18z
		"/>
	<path id="Tracé_698" class="st1" d="M19.94,172.48c0.38-4.47,3.23-8.09,5.77-11.29c1.5-1.72,2.78-3.63,3.81-5.67
		c1.54-3.6-0.39-7.25-1.6-9.01c-10.78,6.91-17.64,15.75-20.43,26.35C11.6,172.15,15.79,172.02,19.94,172.48z"/>
	<path id="Tracé_699" class="st5" d="M368.82,208.63c0.16-0.1,0.34-0.19,0.5-0.29C369.15,208.44,368.98,208.52,368.82,208.63
		L368.82,208.63z"/>
	<path id="Tracé_700" class="st5" d="M368.64,208.2L368.64,208.2l-0.09,0.05l0,0c0.2-0.12,0.4-0.23,0.6-0.35
		C368.98,208,368.81,208.09,368.64,208.2z"/>
	<path id="Tracé_701" class="st6" d="M392.4,214.23c-3.04-5.3-8.68-8.58-14.79-8.58c-0.4,0-0.8,0.01-1.19,0.04
		c-0.13,0.01-0.27,0.03-0.4,0.04c-0.26,0.02-0.53,0.05-0.78,0.08c-0.16,0.02-0.32,0.06-0.49,0.08c-0.23,0.04-0.46,0.07-0.68,0.12
		c-0.17,0.04-0.34,0.08-0.51,0.13c-0.21,0.05-0.42,0.1-0.64,0.16c-0.17,0.05-0.35,0.11-0.52,0.17c-0.2,0.06-0.41,0.12-0.6,0.2
		c-0.17,0.06-0.34,0.14-0.52,0.21c-0.2,0.08-0.39,0.15-0.58,0.24c-0.17,0.07-0.33,0.16-0.5,0.24c-0.19,0.09-0.38,0.18-0.57,0.28
		c-0.16,0.08-0.32,0.18-0.48,0.27c-0.2,0.11-0.4,0.23-0.6,0.35l-0.42,0.26h0.01c-2.2,1.46-4.02,3.42-5.34,5.71
		c-0.09,0.16-0.18,0.31-0.26,0.46c-1.31,2.47-1.99,5.22-1.99,8.01c0.07,9.42,7.77,17,17.19,16.93c9.32-0.07,16.86-7.61,16.93-16.93
		c0-2.8-0.69-5.55-2.01-8.01C392.58,214.53,392.49,214.38,392.4,214.23z M368.82,208.63L368.82,208.63c0.16-0.1,0.34-0.19,0.5-0.29
		C369.16,208.43,368.99,208.53,368.82,208.63L368.82,208.63z M385.53,223.76l-0.23-0.03L385.53,223.76
		c-0.58,4.37-4.6,7.44-8.98,6.86c-3.57-0.48-6.38-3.29-6.86-6.86l0.23-0.03l-0.23,0.03c-0.05-0.35-0.07-0.71-0.07-1.06
		c-0.01-2.58,1.24-5.01,3.35-6.5l-0.02-0.01l0.41-0.26l0,0l0,0h0.01l0.09-0.05l0,0c0.07-0.04,0.14-0.08,0.21-0.12
		s0.15-0.09,0.23-0.13s0.18-0.09,0.27-0.13s0.15-0.07,0.23-0.11c0.09-0.04,0.19-0.08,0.28-0.11c0.08-0.03,0.15-0.06,0.23-0.09
		c0.1-0.04,0.2-0.06,0.3-0.1c0.08-0.02,0.15-0.05,0.23-0.07c0.1-0.03,0.21-0.05,0.31-0.08c0.08-0.02,0.15-0.04,0.23-0.05
		c0.11-0.02,0.22-0.04,0.33-0.06c0.07-0.01,0.14-0.03,0.22-0.04c0.12-0.02,0.25-0.03,0.37-0.04c0.06-0.01,0.12-0.01,0.18-0.02
		c0.18-0.01,0.37-0.02,0.56-0.02c4.41,0.01,7.98,3.58,7.99,7.99C385.6,223.06,385.58,223.41,385.53,223.76L385.53,223.76z"/>
	<path id="Tracé_702" class="st5" d="M373.37,215.93L373.37,215.93L373.37,215.93L373.37,215.93z"/>
	<path id="Tracé_703" class="st4" d="M377.61,214.71c-0.19,0-0.37,0.01-0.56,0.02c-0.06,0-0.12,0.01-0.18,0.02
		c-0.12,0.01-0.25,0.02-0.37,0.04c-0.07,0.01-0.14,0.02-0.22,0.04c-0.11,0.02-0.22,0.03-0.33,0.06c-0.08,0.01-0.15,0.04-0.23,0.05
		c-0.1,0.02-0.21,0.05-0.31,0.08c-0.08,0.02-0.15,0.05-0.23,0.07c-0.1,0.03-0.2,0.06-0.3,0.1c-0.08,0.03-0.15,0.06-0.23,0.09
		c-0.09,0.04-0.19,0.07-0.28,0.11c-0.08,0.03-0.15,0.07-0.23,0.11s-0.18,0.09-0.27,0.13s-0.15,0.08-0.23,0.13
		c-0.1,0.06-0.2,0.11-0.3,0.17h-0.01l0,0l0,0l-0.41,0.26l0.02,0.01c-2.11,1.49-3.35,3.92-3.35,6.5c0,0.35,0.03,0.71,0.07,1.06
		l0.23-0.03l0.23-0.03l0,0l-0.23,0.03l-0.23,0.03c0.58,4.37,4.6,7.44,8.98,6.86c3.57-0.48,6.38-3.29,6.86-6.86l-0.23-0.03
		l-0.23-0.03l0,0l0.23,0.03l0.23,0.03c0.05-0.35,0.07-0.71,0.07-1.06C385.59,218.29,382.02,214.72,377.61,214.71z"/>
	<path id="Tracé_704" class="st5" d="M373.46,215.88L373.46,215.88l-0.09,0.05c0.1-0.06,0.2-0.11,0.3-0.17
		C373.6,215.8,373.53,215.84,373.46,215.88z"/>
	<path id="Tracé_705" class="st5" d="M370.15,223.7l-0.23,0.03L370.15,223.7L370.15,223.7z"/>
	<path id="Tracé_706" class="st5" d="M385.07,223.7l0.23,0.03L385.07,223.7L385.07,223.7z"/>
	<path id="Tracé_707" class="st5" d="M362.93,198.9L362.93,198.9c0.11-0.07,0.22-0.13,0.33-0.2
		C363.15,198.77,363.04,198.83,362.93,198.9z"/>
	<path id="Tracé_708" class="st5" d="M404.75,214.23c-2.28-7.25-7.36-13.29-14.1-16.78C397.4,200.94,402.47,206.98,404.75,214.23z"
		/>
	<path id="Tracé_709" class="st5" d="M362.6,198.56l-0.09,0.05h-0.01c0.17-0.11,0.34-0.21,0.51-0.31
		C362.87,198.39,362.73,198.47,362.6,198.56z"/>
	<path id="Tracé_710" d="M404.89,214.69c-0.05-0.15-0.09-0.31-0.13-0.46c-2.28-7.25-7.36-13.29-14.1-16.78
		c-0.45-0.23-0.9-0.45-1.36-0.66c-1.05-0.48-2.14-0.89-3.24-1.23c-0.89-0.28-1.8-0.51-2.72-0.7c-1.88-0.39-3.8-0.58-5.72-0.58
		c-0.33,0-0.67,0.01-1,0.02c-0.1,0-0.2,0.01-0.3,0.02c-0.23,0.01-0.47,0.02-0.7,0.04c-0.13,0.01-0.27,0.02-0.4,0.03
		c-0.2,0.02-0.39,0.03-0.59,0.05c-0.15,0.02-0.3,0.04-0.45,0.05c-0.18,0.02-0.36,0.04-0.53,0.07c-0.15,0.02-0.31,0.05-0.46,0.07
		c-0.17,0.03-0.35,0.05-0.52,0.08c-0.16,0.03-0.31,0.06-0.47,0.09s-0.34,0.06-0.51,0.1s-0.32,0.07-0.48,0.11s-0.33,0.07-0.49,0.11
		s-0.32,0.08-0.48,0.13s-0.32,0.08-0.47,0.13s-0.32,0.1-0.47,0.14s-0.31,0.09-0.47,0.15s-0.32,0.11-0.47,0.16s-0.31,0.1-0.46,0.16
		s-0.32,0.12-0.47,0.18s-0.3,0.11-0.45,0.17s-0.3,0.13-0.46,0.19s-0.3,0.13-0.46,0.19s-0.29,0.14-0.44,0.21s-0.31,0.14-0.46,0.21
		s-0.29,0.15-0.43,0.22s-0.31,0.15-0.46,0.23c-0.14,0.07-0.27,0.15-0.41,0.23c-0.16,0.09-0.31,0.17-0.46,0.26
		c-0.13,0.08-0.26,0.16-0.39,0.23c-0.17,0.1-0.34,0.2-0.51,0.31l-0.42,0.26h0.01c-5.55,3.6-9.67,9.03-11.63,15.34
		c-0.05,0.15-0.1,0.31-0.14,0.46c-4.43,15.07,4.2,30.87,19.27,35.3c15.07,4.43,30.87-4.2,35.3-19.27c0.41-1.39,0.71-2.8,0.9-4.24
		c0.17-1.25,0.25-2.51,0.26-3.77c0-0.49-0.01-0.98-0.04-1.46C405.89,219.02,405.52,216.82,404.89,214.69z M362.93,198.9
		c0.11-0.07,0.22-0.13,0.33-0.19C363.15,198.77,363.04,198.83,362.93,198.9L362.93,198.9z M394.52,224.97
		c-1.26,9.34-9.85,15.88-19.19,14.62s-15.88-9.85-14.62-19.19c0.27-2,0.89-3.93,1.84-5.71c0.08-0.16,0.17-0.31,0.26-0.46
		c1.31-2.29,3.14-4.24,5.34-5.71h-0.01l0.42-0.26l0,0l0.09-0.05l0,0c0.17-0.1,0.34-0.19,0.51-0.29s0.32-0.19,0.48-0.27
		c0.19-0.1,0.38-0.19,0.57-0.28c0.17-0.08,0.33-0.17,0.5-0.24c0.19-0.09,0.39-0.16,0.58-0.24c0.17-0.07,0.34-0.14,0.52-0.21
		c0.2-0.07,0.4-0.13,0.6-0.2c0.17-0.06,0.34-0.12,0.52-0.17c0.21-0.06,0.42-0.11,0.64-0.16c0.17-0.04,0.34-0.09,0.51-0.13
		c0.22-0.05,0.45-0.08,0.68-0.12c0.16-0.03,0.32-0.06,0.49-0.08c0.26-0.04,0.52-0.06,0.78-0.08c0.13-0.01,0.26-0.03,0.4-0.04
		c0.4-0.03,0.79-0.04,1.19-0.04c6.11,0.01,11.76,3.28,14.79,8.58c0.09,0.15,0.18,0.31,0.26,0.46c1.32,2.47,2.01,5.22,2.01,8.01
		C394.66,223.46,394.61,224.22,394.52,224.97L394.52,224.97z"/>
	<path id="Tracé_711" class="st5" d="M62.63,208.63c0.16-0.1,0.32-0.18,0.48-0.28C62.95,208.44,62.79,208.53,62.63,208.63
		L62.63,208.63z"/>
	<path id="Tracé_712" class="st5" d="M62.45,208.19l-0.08,0.05l-0.01,0c0.2-0.13,0.41-0.24,0.62-0.36
		C62.8,207.99,62.62,208.09,62.45,208.19z"/>
	<path id="Tracé_713" class="st6" d="M86.08,213.99c-3.07-5.17-8.64-8.35-14.66-8.35c-0.4,0-0.8,0.01-1.19,0.04
		c-0.13,0.01-0.26,0.03-0.4,0.04c-0.26,0.02-0.53,0.05-0.79,0.08c-0.16,0.02-0.32,0.06-0.48,0.08c-0.23,0.04-0.46,0.07-0.69,0.12
		c-0.17,0.04-0.33,0.08-0.5,0.12c-0.22,0.05-0.43,0.1-0.65,0.16c-0.17,0.05-0.34,0.11-0.51,0.16c-0.21,0.07-0.41,0.13-0.62,0.2
		c-0.17,0.06-0.33,0.13-0.5,0.2c-0.2,0.08-0.4,0.16-0.6,0.24c-0.16,0.07-0.32,0.15-0.48,0.23c-0.2,0.1-0.4,0.19-0.59,0.29
		c-0.16,0.08-0.3,0.17-0.46,0.26c-0.21,0.12-0.42,0.23-0.62,0.36l-0.42,0.26h0.01c-2.06,1.37-3.8,3.18-5.09,5.29
		c-0.09,0.15-0.18,0.31-0.27,0.46c-1.46,2.57-2.23,5.48-2.23,8.44c0,0.76,0.05,1.51,0.15,2.26c1.25,9.34,9.83,15.89,19.17,14.64
		c7.62-1.02,13.62-7.02,14.64-14.64c0.1-0.75,0.15-1.51,0.15-2.26c0-2.88-0.73-5.72-2.13-8.25
		C86.26,214.3,86.17,214.15,86.08,213.99z M62.63,208.63L62.63,208.63c0.16-0.1,0.32-0.18,0.48-0.27
		C62.95,208.44,62.79,208.53,62.63,208.63L62.63,208.63z M67.18,215.93l0.09-0.05l0,0c0.07-0.04,0.14-0.08,0.21-0.12
		C67.38,215.81,67.28,215.87,67.18,215.93L67.18,215.93z M78.88,223.7L78.88,223.7c-0.55,4.12-4.34,7.01-8.46,6.46
		c-3.36-0.45-6.01-3.1-6.46-6.46l0,0l-0.23,0.03l0.23-0.03c-0.04-0.33-0.07-0.67-0.07-1c0.01-4.16,3.38-7.52,7.54-7.52
		c4.15,0.01,7.51,3.37,7.52,7.52C78.95,223.03,78.92,223.37,78.88,223.7l0.23,0.03L78.88,223.7z"/>
	<path id="Tracé_714" class="st5" d="M67.27,215.88L67.27,215.88l-0.09,0.05l0,0c0.1-0.06,0.2-0.12,0.3-0.18
		C67.41,215.8,67.34,215.84,67.27,215.88z"/>
	<path id="Tracé_715" class="st5" d="M63.96,223.7L63.96,223.7l-0.23,0.03L63.96,223.7z"/>
	<path id="Tracé_716" class="st5" d="M78.88,223.7l0.23,0.03L78.88,223.7L78.88,223.7z"/>
	<path id="Tracé_717" class="st5" d="M56.74,198.9l-0.27,0.17c0.11-0.07,0.49-0.3,0.6-0.37C56.96,198.77,56.85,198.83,56.74,198.9z
		"/>
	<path id="Tracé_718" class="st5" d="M43.7,226.42L43.7,226.42l-0.23,0.03L43.7,226.42z"/>
	<path id="Tracé_719" class="st5" d="M99.37,226.45l-0.23-0.03l0,0L99.37,226.45z"/>
	<path id="Tracé_720" class="st7" d="M154.86,180.04V77.31h-36.36c-3.12,0-6.19,0.77-8.94,2.25c-0.58,0.31-1.18,0.66-1.81,1.04
		c-4.93,2.91-9.09,6.95-12.14,11.8c-6.69,11-30.81,40.24-35.92,41.77c-0.44,0.13-1.13,0.3-2.09,0.53
		c-4.66,1.14-15.58,3.8-26.05,9.65c-1.11,0.62-2.19,1.26-3.23,1.92c1.26,1.84,3.25,5.65,1.63,9.44c-1.04,2.08-2.34,4.02-3.87,5.77
		c-2.62,3.31-5.32,6.73-5.67,11.05c5.97,0.65,11.71,2.67,16.77,5.9c7.77,4.96,16.32,8.57,25.3,10.67c0.19-0.05,0.38-0.1,0.57-0.15
		s0.39-0.09,0.59-0.14s0.39-0.09,0.58-0.13s0.41-0.08,0.61-0.12s0.38-0.08,0.57-0.11c0.21-0.04,0.42-0.07,0.63-0.1
		c0.19-0.03,0.38-0.06,0.56-0.09c0.22-0.03,0.45-0.06,0.67-0.08c0.18-0.02,0.35-0.05,0.53-0.06c0.23-0.02,0.47-0.04,0.7-0.06
		c0.17-0.01,0.34-0.03,0.5-0.04c0.27-0.02,0.54-0.03,0.8-0.04c0.14-0.01,0.27-0.02,0.41-0.02c0.41-0.01,0.81-0.02,1.22-0.02
		c5.87-0.01,11.64,1.48,16.77,4.33c0.87,0.02,1.75,0.03,2.63,0.03h64.08v-11.25C154.87,180.7,154.86,180.37,154.86,180.04z"/>
	<path id="Tracé_721" class="st5" d="M154.9,181.03v11.48h0.46v-36.28h-0.04V77.31h-0.46v102.73
		C154.86,180.37,154.87,180.7,154.9,181.03z"/>
	
		<linearGradient id="Tracé_722_1_" gradientUnits="userSpaceOnUse" x1="1.2765" y1="389.3333" x2="1.2765" y2="388.3333" gradientTransform="matrix(100.5221 0 0 -22.3101 316.7658 8878.4238)">
		<stop  offset="0" style="stop-color:#4B3991"/>
		<stop  offset="1" style="stop-color:#352A60"/>
	</linearGradient>
	<path id="Tracé_722" class="st8" d="M488.93,192.44l-3.76-0.06h-90.35c0.23,0.13,0.56,0.33,0.78,0.46l0.1,0.06
		c7.2,4.38,12.58,11.21,15.15,19.24c0.06,0.19,0.12,0.38,0.18,0.57c0.15,0.5,0.29,1.01,0.41,1.52c0.04,0.15,0.08,0.31,0.11,0.46
		h77.38c3.54,0,6.41-2.87,6.41-6.41v-9.42C495.34,195.31,492.47,192.44,488.93,192.44z"/>
	
		<linearGradient id="Tracé_723_1_" gradientUnits="userSpaceOnUse" x1="1.4174" y1="389.4877" x2="1.4174" y2="388.4877" gradientTransform="matrix(272.0949 0 0 -22.677 -161.442 9024.6631)">
		<stop  offset="0" style="stop-color:#4B3991"/>
		<stop  offset="1" style="stop-color:#352A60"/>
	</linearGradient>
	<path id="Tracé_723" class="st9" d="M167.76,192.38l-0.24-0.05v-0.05h-12.16v0.23h-0.46v-0.23H90.82c-0.88,0-1.76-0.01-2.63-0.03
		c0.28,0.16,0.56,0.31,0.83,0.48c7.33,4.32,12.83,11.16,15.47,19.25c0.06,0.19,0.13,0.38,0.19,0.57c0.16,0.52,0.3,1.04,0.43,1.57
		c0.04,0.15,0.08,0.31,0.11,0.46l52.98,0.34h0.14c0.72,0,1.44-0.09,2.14-0.25c0.07,0,0.15,0.01,0.22,0.01h182.96
		c0.04-0.15,0.07-0.31,0.11-0.46c0.13-0.51,0.26-1.01,0.41-1.52c0.06-0.19,0.12-0.39,0.18-0.57c2.48-7.83,7.66-14.52,14.61-18.9
		l0.34-0.21l0.2-0.12l0.1-0.06l0.11-0.06c0.18-0.11,0.35-0.21,0.53-0.31l0.04-0.02H167.76V192.38z"/>
	
		<linearGradient id="Tracé_724_1_" gradientUnits="userSpaceOnUse" x1="1.1191" y1="393.7421" x2="1.1191" y2="392.7421" gradientTransform="matrix(58.9751 0 0 -41.4641 -33.0343 16498.377)">
		<stop  offset="0" style="stop-color:#4B3991"/>
		<stop  offset="1" style="stop-color:#352A60"/>
	</linearGradient>
	<path id="Tracé_724" class="st10" d="M20.4,172.53c-0.16-0.02-0.31-0.03-0.46-0.05c-4.15-0.46-8.34-0.34-12.45,0.38
		c-0.03,0.12-0.07,0.24-0.1,0.36c-0.01,0.05-0.02,0.09-0.03,0.14c-4.23,16.73-4.11,26.59-3.66,30.99c0.44,4.26,3.83,7.62,8.1,8.02
		c5.37,0.49,14.11,1.12,25.28,1.31l0,0c0.44,0,0.83-0.29,0.95-0.72c0.08-0.28,0.16-0.56,0.25-0.84c0.06-0.19,0.12-0.38,0.19-0.57
		c2.55-7.54,7.62-13.98,14.36-18.22l0,0l0.34-0.21c0.14-0.08,0.27-0.17,0.41-0.25c0.17-0.1,0.35-0.21,0.53-0.31s0.35-0.2,0.52-0.29
		s0.36-0.2,0.54-0.29s0.35-0.18,0.53-0.27s0.36-0.19,0.55-0.28s0.36-0.17,0.53-0.25s0.37-0.18,0.56-0.26s0.36-0.16,0.55-0.23
		s0.38-0.16,0.57-0.24s0.37-0.14,0.55-0.21s0.38-0.15,0.57-0.22s0.38-0.13,0.56-0.19s0.38-0.13,0.58-0.2s0.38-0.12,0.57-0.18
		l0.27-0.08c0.1-0.03,0.21-0.06,0.31-0.09c0.19-0.05,0.39-0.1,0.58-0.16h0.01c-8.98-2.1-17.53-5.71-25.3-10.67
		C32.1,175.2,26.36,173.19,20.4,172.53z"/>
	<path id="Tracé_725" class="st6" d="M29.51,155.52c-1.03,2.04-2.31,3.95-3.81,5.67c-2.54,3.2-5.39,6.82-5.77,11.29
		c0.15,0.02,0.3,0.03,0.46,0.05c0.35-4.33,3.05-7.75,5.67-11.05c1.53-1.75,2.83-3.69,3.87-5.77c1.62-3.78-0.38-7.59-1.63-9.44
		c-0.13,0.08-0.26,0.16-0.39,0.25C29.12,148.27,31.05,151.92,29.51,155.52z"/>
</g>
<g id="Groupe_382" transform="translate(234.195 74.992)">
	<path id="Tracé_726" class="st11" d="M60.48,46.71c-1.13-0.01-2.04-0.92-2.05-2.05V19.93c0-1.13,0.92-2.05,2.05-2.05h7.94
		c7.96-0.02,14.43,6.41,14.46,14.37c0.02,7.96-6.41,14.43-14.37,14.46c-0.03,0-0.05,0-0.08,0L60.48,46.71z M68.42,21.98h-5.89v20.63
		h5.89c5.7-0.01,10.31-4.63,10.3-10.33C78.71,26.6,74.1,21.99,68.42,21.98L68.42,21.98z"/>
	<path id="Tracé_727" class="st12" d="M101.25,29.58c-2.56-3.25-7.27-3.81-10.52-1.25c-0.47,0.37-0.89,0.79-1.25,1.25
		c-3.91,3.92-3.91,10.27,0,14.19c1.56,1.61,3.64,2.63,5.87,2.87c1.72-0.17,3.36-0.81,4.74-1.86c-0.03,0.42,0.08,0.85,0.29,1.21
		c0.76-0.31,1.48-0.72,2.13-1.21c-0.07,0.58,0.16,1.16,0.61,1.53c0.07,0.05,0.15,0.09,0.23,0.13c0.08-0.03,0.16-0.08,0.23-0.13
		c0.46-0.38,0.68-0.97,0.61-1.56v-8.16C104.21,33.94,103.15,31.42,101.25,29.58z M94.15,42.63c-1.58,0.03-3.11-0.6-4.21-1.74
		c-2.32-2.34-2.3-6.12,0.04-8.44c1.41-1.39,3.41-2,5.36-1.61c2.63,0.54,4.57,2.76,4.76,5.43c-0.02,0.12-0.02,0.24-0.02,0.36v0.77
		c-0.32,2.54-2.21,4.59-4.71,5.12C94.97,42.59,94.57,42.63,94.15,42.63L94.15,42.63z"/>
	<path id="Tracé_728" class="st11" d="M103.68,29.58c-1.86-1.92-4.43-2.98-7.1-2.93c-0.4,0-0.81,0.02-1.21,0.07
		c-5.5,0.67-9.42,5.67-8.75,11.17c0.56,4.58,4.16,8.19,8.73,8.75c0.41,0.05,0.82,0.07,1.23,0.07c1.3,0.01,2.59-0.23,3.8-0.72
		c0.76-0.31,1.48-0.72,2.13-1.21c-0.07,0.58,0.16,1.16,0.61,1.53c0.07,0.05,0.15,0.09,0.23,0.13c0.85,0.41,1.85,0.36,2.66-0.13
		c0.46-0.38,0.68-0.97,0.61-1.57v-8.16C106.63,33.94,105.57,31.42,103.68,29.58z M102.51,36.62v0.77c-0.37,2.99-2.92,5.24-5.93,5.24
		c-0.4,0-0.81-0.04-1.2-0.12c-1.14-0.22-2.19-0.79-3-1.62c-2.33-2.33-2.33-6.12,0.01-8.45c0.81-0.81,1.85-1.37,2.97-1.61
		c0.4-0.08,0.82-0.11,1.23-0.11c1.59-0.03,3.12,0.6,4.22,1.74c1.05,1,1.67,2.36,1.74,3.8C102.53,36.38,102.52,36.5,102.51,36.62
		L102.51,36.62z"/>
	<path id="Tracé_729" class="st11" d="M106.62,36.78v-8.16c0.08-0.59-0.15-1.18-0.61-1.57c-0.81-0.49-1.81-0.54-2.66-0.13
		c-0.08,0.03-0.16,0.08-0.23,0.13c-0.45,0.37-0.68,0.95-0.61,1.53c-0.66-0.49-1.37-0.9-2.13-1.21c-1.21-0.48-2.5-0.73-3.8-0.72
		c-0.41,0-0.82,0.02-1.23,0.07c-5.03,0.62-8.81,4.89-8.8,9.96c-0.01,5.07,3.78,9.35,8.82,9.95c0.4,0.05,0.81,0.07,1.21,0.07
		C102.09,46.72,106.57,42.29,106.62,36.78L106.62,36.78z M102.54,37.11c-0.07,1.44-0.69,2.8-1.74,3.8
		c-1.11,1.14-2.63,1.77-4.22,1.74c-0.41,0-0.82-0.04-1.23-0.11c-3.23-0.69-5.28-3.87-4.59-7.09c0.24-1.12,0.8-2.15,1.61-2.97
		c0.81-0.84,1.86-1.4,3-1.62c1.97-0.4,4,0.21,5.42,1.62c0.96,0.93,1.57,2.17,1.71,3.5v0.77C102.51,36.87,102.52,36.99,102.54,37.11
		L102.54,37.11z"/>
	<path id="Tracé_730" class="st11" d="M109.14,29.58c-0.16-0.3-0.24-0.63-0.24-0.97c-0.01-1.1,0.87-2,1.97-2.01
		c0.01,0,0.03,0,0.04,0c0.53-0.01,1.05,0.2,1.43,0.58c0.21,0.21,0.37,0.46,0.46,0.74l6.15,12.28l6.13-12.28
		c0.1-0.28,0.27-0.54,0.48-0.74c0.79-0.78,2.07-0.78,2.85,0.02c0.6,0.61,0.75,1.53,0.38,2.29l-15.17,30.27
		c-0.14,0.28-0.32,0.53-0.54,0.74c-0.37,0.39-0.89,0.61-1.43,0.6c-0.54,0.01-1.06-0.2-1.43-0.59c-0.38-0.37-0.59-0.88-0.58-1.42
		c-0.01-0.4,0.08-0.8,0.26-1.17l6.79-13.24L109.14,29.58z"/>
	<path id="Tracé_731" class="st11" d="M135.97,21.3c0.39,0.38,0.61,0.9,0.6,1.45v21.91c-0.04,1.13-0.98,2.02-2.11,1.99
		c-1.08-0.03-1.95-0.9-1.99-1.99V22.75c0-1.13,0.91-2.05,2.04-2.05C135.05,20.69,135.58,20.91,135.97,21.3z"/>
	<path id="Tracé_732" class="st11" d="M142.58,46.71c-0.54,0.01-1.06-0.2-1.45-0.58c-0.39-0.36-0.61-0.87-0.6-1.4l0.71-8.23
		l-0.71-7.3c-0.01-0.53,0.21-1.04,0.6-1.4c0.81-0.78,2.09-0.78,2.9,0c0.39,0.36,0.61,0.87,0.6,1.4l-0.66,7.26l0.66,8.27
		c0.01,0.53-0.21,1.04-0.6,1.4C143.65,46.51,143.12,46.72,142.58,46.71z"/>
	<path id="Tracé_733" class="st7" d="M160.53,45.41c-0.09,0.27-0.25,0.51-0.46,0.7c-0.37,0.39-0.89,0.61-1.43,0.6
		c-0.53,0.01-1.04-0.21-1.41-0.6c-0.21-0.19-0.36-0.42-0.46-0.68l-7.82-15.66c-0.24-0.33-0.37-0.73-0.36-1.15
		c0.01-1.11,0.91-2.01,2.03-2.01c0.53,0,1.03,0.21,1.41,0.58c0.13,0.12,0.24,0.27,0.32,0.42l6.29,12.56l15.44-31
		c0,0,0.23-0.29,0.36-0.42c0.78-0.78,2.05-0.78,2.83,0c0,0,0,0,0.01,0.01c0.38,0.37,0.59,0.89,0.58,1.42
		c0.01,0.42-0.13,0.83-0.38,1.17L160.53,45.41z"/>
	<path id="Tracé_734" class="st11" d="M142.56,25.64c-0.57,0-1.1-0.27-1.45-0.73c-0.8-1.02-0.8-2.46,0-3.48
		c0.6-0.8,1.73-0.97,2.53-0.37c0.14,0.11,0.27,0.23,0.37,0.37c0.8,1.02,0.8,2.46,0,3.48C143.67,25.37,143.13,25.64,142.56,25.64z"/>
	<path id="Union_5" class="st12" d="M27.22,48.51c0-1.45,1.18-2.63,2.63-2.63c1.45,0,2.63,1.18,2.63,2.63
		c0,1.45-1.18,2.63-2.63,2.63l0,0C28.4,51.14,27.22,49.96,27.22,48.51z M18.59,48.51c0-1.45,1.18-2.63,2.63-2.63
		s2.63,1.18,2.63,2.63c0,1.45-1.18,2.63-2.63,2.63C19.77,51.14,18.59,49.96,18.59,48.51z M11.62,44.21c-0.88,0-1.6-0.72-1.6-1.6
		s0.72-1.6,1.6-1.6l0,0h24.16l8.49-17.99l-9.62-0.01c-0.88-0.06-1.55-0.83-1.48-1.71c0.06-0.79,0.69-1.43,1.48-1.48l12.05,0
		c0.88-0.05,1.64,0.62,1.69,1.51c0.02,0.27-0.04,0.53-0.15,0.77l-9.95,21.09c-0.24,0.62-0.83,1.02-1.49,1.02L11.62,44.21z
		 M12.29,36.58c-0.79-0.11-1.34-0.82-1.26-1.61c-0.08-0.79,0.48-1.5,1.26-1.6h21.39c0.78,0.1,1.34,0.81,1.26,1.6
		c0.08,0.79-0.48,1.49-1.26,1.6L12.29,36.58z M10.37,29.22c-0.88,0-1.6-0.72-1.6-1.6c0-0.88,0.72-1.6,1.6-1.6h2.31l-0.98-5.83
		l-6.62,0.84c-0.88-0.06-1.55-0.83-1.48-1.71c0.06-0.79,0.69-1.43,1.48-1.48l8.1-0.87c0.7,0,1.31,0.46,1.52,1.12l1.14,7.89
		l21.03,0.07c0.88,0,1.6,0.72,1.6,1.6c0,0.88-0.72,1.6-1.6,1.6L10.37,29.22z"/>
</g>
<path id="Tracé_740" class="st1" d="M140.04,87.08l-7.49,0.09c-0.17,0-0.34,0.02-0.51,0.04c-24.48,4.19-32.87,16.22-37.06,24.9
	c-0.94,1.95-1.7,3.81-2.38,5.46l-0.42,1.01c-1.2,2.82-1.99,5.81-2.35,8.85c-0.26,1.99,0.3,3.99,1.56,5.55
	c0.65,0.79,1.61,1.26,2.64,1.29h23.89l-0.01,0.02h4.66c0.29,0.03,0.59,0.05,0.89,0.05c0.27,0,0.55-0.02,0.82-0.05h3.08l0.02-0.02
	h8.64c5.26,0,9.53-6.11,9.53-13.62V94.94C145.57,90.61,143.09,87.08,140.04,87.08z"/>
</svg>
