<?xml version="1.0" encoding="utf-8"?>
<!-- Generator: Adobe Illustrator 25.0.1, SVG Export Plug-In . SVG Version: 6.00 Build 0)  -->
<svg version="1.1" id="Calque_1" xmlns="http://www.w3.org/2000/svg" xmlns:xlink="http://www.w3.org/1999/xlink" x="0px" y="0px"
	 viewBox="0 0 258.62 595.28" style="enable-background:new 0 0 258.62 595.28;" xml:space="preserve">
<style type="text/css">
	.st0{fill:none;}
	.st1{fill:#5D5271;}
	.st2{fill:#E5AF41;}
	.st3{fill:#E4AF40;}
	.st4{fill:#CB9A38;}
	.st5{fill:#F4B6B3;}
	.st6{fill:#D2C5C2;}
	.st7{fill:#553743;}
	.st8{fill:#FFFFFF;}
	.st9{fill:#FEFFFF;}
	.st10{fill:#352B61;}
	.st11{fill:#793850;}
</style>
<g id="Perso1" transform="translate(-100.883 -514.469)">
	<path id="Tracé_448" class="st0" d="M196.78,559.2L196.78,559.2c-1.28-0.63-2.7-0.96-4.13-0.94
		C194.09,558.26,195.5,558.59,196.78,559.2z"/>
	<path id="Tracé_449" class="st1" d="M190.92,1069.11c-0.23,0.13-0.5,0.14-0.74,0.02c-0.22-0.1-5.63-2.5-13.25,2.02
		c-0.38,0.22-0.87,0.1-1.1-0.29c-0.23-0.38-0.1-0.86,0.27-1.09c0,0,0.01-0.01,0.02-0.01c6.5-3.85,11.62-3.07,13.73-2.47l1.14-10.46
		l-35.28-2.11l-0.53,1.66l0.09-0.93c-7.29,23.09-6.84,31.56-6.61,33.35c0.17-0.03,0.34-0.05,0.5-0.05h61.91
		c-0.89-13.58-16.16-19.03-19.78-20.14C191.25,1068.82,191.11,1069.01,190.92,1069.11z"/>
	<path id="Tracé_450" class="st1" d="M346.14,1082.86c0.44,0,0.87,0.08,1.27,0.24c-3.01-17.25-19.83-20.1-23.69-20.52
		c-0.01,0.14-0.06,0.27-0.13,0.38c-0.18,0.26-0.5,0.39-0.81,0.33c-0.13-0.02-12.96-2.46-17.03,3.14c-0.15,0.21-0.39,0.33-0.65,0.33
		c-0.17,0-0.33-0.06-0.47-0.15c-0.36-0.26-0.44-0.75-0.18-1.11c0,0,0.01-0.01,0.01-0.01c3.71-5.11,12.95-4.55,16.86-4.05
		l-6.62-10.52c-0.08-0.13-0.12-0.29-0.11-0.44l-33.69-0.63l-0.02,0.01c-0.2,25.27,1.69,31.71,2.27,33.1c0.27-0.07,0.55-0.1,0.82-0.1
		L346.14,1082.86L346.14,1082.86z"/>
	<path id="Tracé_451" class="st2" d="M306.26,991.34l-30.53-196.92l-95.53,8.34l-18.89,192.89h44.44c0.06,0,0.12,0.02,0.18,0.03
		l23.04-99.53l5.36-23.13l11.6-50.09l0.33-2.04l9.26,132.46l10.07,38.2c0.06-0.02,0.13-0.04,0.2-0.04L306.26,991.34z"/>
	<path id="Tracé_452" class="st3" d="M314.6,1050.48c-0.01-0.42,0.32-0.77,0.75-0.78c0.06,0,0.12,0,0.17,0.02l-1.07-6.85l-0.2,0.01
		l0.03,0.2l-34.86,1.03l-0.05-0.2l-0.21,0.01l1.48,5.61l-1.32,0.32l1.41,0.02l0.01,0.04l0.14-0.03l0.02-0.01L314.6,1050.48z"/>
	<path id="Tracé_453" class="st4" d="M245.92,822.94l-11.6,50.08l21.18,80.34l-9.26-132.46L245.92,822.94z"/>
	<path id="Tracé_454" class="st5" d="M158.96,1019.81l-1.69,17.3l-0.8,8.17l-0.02,0.2h37.97l0.04-0.2l1.89-8.17l3.92-16.94h-39.13
		C160.39,1020.17,159.65,1020.05,158.96,1019.81z"/>
	<path id="Tracé_455" class="st3" d="M177.9,1045.47h-21.46l0.02-0.2h-0.2l-0.9,9.22l-0.08,0.23h0.04l-0.08,0.74l-0.09,0.93
		l0.53-1.66l35.28,2.11l0,0c0.05-0.44,0.45-0.76,0.89-0.71c0.09,0.01,0.17,0.04,0.25,0.08l2.54-10.95h-0.21l-0.04,0.2h-16.5
		L177.9,1045.47z"/>
	<path id="Tracé_456" class="st5" d="M314.28,1043.05l-0.02-0.2l-1.83-11.76l-2.36-15.23h-38.08l3.95,15.01l3.44,13.01l0.05,0.2
		L314.28,1043.05z"/>
	<path id="Tracé_457" class="st2" d="M205.76,997.26h-44.52c-0.43,0-0.78-0.34-0.79-0.77c-3.45,0.35-6.08,3.25-6.07,6.72v10.2
		c0.01,3.72,3.03,6.74,6.75,6.75h45.42c3.73,0,6.75-3.02,6.75-6.74c0,0,0-0.01,0-0.01v-10.2c0-3.72-3.01-6.74-6.73-6.75
		C206.56,996.9,206.2,997.26,205.76,997.26z"/>
	<path id="Tracé_458" class="st2" d="M312.7,1015.86c3.73,0,6.75-3.02,6.75-6.74c0,0,0-0.01,0-0.01v-10.2
		c0-3.73-3.02-6.75-6.74-6.75c0,0-0.01,0-0.01,0h-5.5c0,0.44-0.36,0.8-0.8,0.8c0,0,0,0,0,0l-40.62,0.18l0,0
		c-0.35,0-0.66-0.24-0.76-0.58c-2.69,0.96-4.49,3.5-4.49,6.36v10.2c0,3.73,3.02,6.75,6.74,6.75c0,0,0.01,0,0.01,0L312.7,1015.86
		L312.7,1015.86z"/>
	<path id="Tracé_459" class="st6" d="M347.42,1083.1c-0.41-0.15-0.84-0.23-1.27-0.24h-62.16c-0.28,0-0.55,0.04-0.82,0.1
		c-2,0.45-3.26,2.44-2.81,4.45c0.38,1.7,1.89,2.9,3.63,2.9h62.16c2.05,0.01,3.72-1.65,3.73-3.7
		C349.88,1085.04,348.9,1083.63,347.42,1083.1L347.42,1083.1z"/>
	<path id="Tracé_460" class="st6" d="M148.66,1088.82c-2.03,0.27-3.46,2.14-3.19,4.17c0.25,1.85,1.83,3.23,3.7,3.22h62.16
		c2.06,0.01,3.73-1.65,3.74-3.71c0.01-2.06-1.65-3.73-3.71-3.74c-0.01,0-0.02,0-0.03,0h-62.16
		C148.99,1088.77,148.82,1088.79,148.66,1088.82z"/>
	<path id="Tracé_461" class="st5" d="M116.53,835.2c-2.57,2.61-4.28,5.94-4.9,9.55c-1.71,9.87,4.9,19.25,14.77,20.96
		c6.59,1.14,13.28-1.44,17.39-6.72c5.49,1.28,10.34-2.94,5.76-10.44c-1.64-2.65-2.63-5.66-2.88-8.77l6.69-38.32l-30.04-5.24
		L116.53,835.2z"/>
	<path id="Tracé_462" class="st7" d="M213.22,596.11c-0.53,0-1.03-0.03-1.55-0.08l17.49,9.91v-10c-0.75,0.11-1.51,0.17-2.27,0.18
		L213.22,596.11z"/>
	<path id="Tracé_463" class="st8" d="M231.58,579.87h-12.14c-0.59,0-1.08,0.48-1.08,1.07c0,0.13,0.02,0.27,0.07,0.39
		c0.8,2,3.16,4.18,7.76,4.18c2.77,0.08,5.3-1.57,6.36-4.13c0.25-0.53,0.02-1.17-0.51-1.42C231.9,579.9,231.74,579.87,231.58,579.87z
		"/>
	<path id="Tracé_464" class="st1" d="M331.65,656.2v-8.2h-30.7v8.43l30.69-0.23H331.65z"/>
	<path id="Tracé_465" class="st1" d="M177.36,752.1c29.27-1.79,86.03-5.8,91.33-8.16c6.11-2.72,2.16-15.83,2.13-15.97
		c-0.01-0.04-0.02-0.07-0.02-0.11l-9.98-61.3c-0.07-0.44,0.23-0.84,0.66-0.92c0.44-0.07,0.85,0.22,0.92,0.66l9.97,61.25
		c0.56,1.92,0.95,3.88,1.17,5.86c3.33,7.15,11.94,18.51,33.21,19.48c27.84,1.26,31.5-25.95,31.96-31.83
		c0.02-0.15,0.02-0.32,0.03-0.48c0.02-0.4,0.03-0.63,0.03-0.63l0,0v-53.48c0-4.11-2.54-7.78-6.38-9.23
		c-0.1,0.33-0.41,0.55-0.75,0.55l-30.69,0.23h-0.01c-0.32,0-0.61-0.19-0.74-0.49c-3.48,1.62-5.7,5.11-5.7,8.95v15.97
		c0.43,0,0.78,0.33,0.8,0.76l1.3,28.77c0.02,0.44-0.32,0.81-0.76,0.83c0,0,0,0-0.01,0h-0.03c-0.43,0-0.78-0.34-0.8-0.77l-1.3-28.77
		c-0.01-0.25,0.11-0.49,0.31-0.65c-10.08-12.53-20.34-25.76-23.02-30.99c-15.32-39.14-30.91-38-30.91-38s-1.65,0.16-4.98,0.33
		c1.02,5.33,0.58,12.41-8.71,13.06c-8.4,0.59-17.79,0.44-25.09-2.57c-1.63-0.66-3.18-1.5-4.62-2.51c-3.07-2.16-5.38-5.23-6.6-8.78
		c-47.37-2.25-51.83,39.36-51.83,39.36s-19,121.68-19.56,128.2c-0.57,6.52,4.54,8.51,4.54,8.51l0.47,0.08l0,0
		c0.07-0.44,0.48-0.74,0.92-0.67l30.14,4.72c0.44,0.07,0.74,0.48,0.67,0.92l0,0l0.42,0.07c6.24,0,7.94-5.95,7.94-5.95l5.28-40.05
		c-0.44-0.06-0.75-0.46-0.69-0.9l10.83-85.2c0.06-0.44,0.46-0.75,0.9-0.69c0.44,0.06,0.75,0.46,0.69,0.9l-10.83,85.2
		c-0.05,0.38-0.36,0.67-0.74,0.69c0.57,3.99,5.44,4.54,7.37,4.6C176.6,752.51,176.93,752.14,177.36,752.1z"/>
	<path id="Tracé_466" class="st1" d="M124.37,790.2l-0.65,3.73l-0.4,2.28l30.04,5.24l1.14-6.54l-30.12-4.71
		C124.38,790.21,124.38,790.2,124.37,790.2z"/>
	<path id="Tracé_467" class="st1" d="M269.21,745.47c-7.65,3.07-88.31,8.03-91.76,8.25h-0.05c-0.02,0-0.03-0.01-0.05-0.01
		l-0.86,12.72l96.1-7.34L269.21,745.47z"/>
	<path id="Tracé_468" class="st9" d="M281.47,793.93l-6.69-26.91l0,0l-1.98-7.95l-0.21,0.02l-96.1,7.32h-0.03l-0.16,0.02
		l-0.53,7.76l-1.98,29.13l6.41-0.56l95.53-8.33L281.47,793.93z"/>
	<path id="Tracé_469" class="st5" d="M196.69,621.95c1.44,1.01,2.99,1.86,4.62,2.51c7.3,3.01,16.69,3.16,25.09,2.57
		c9.28-0.65,9.73-7.73,8.71-13.06c-1.59,0.08-3.57,0.15-5.94,0.21v-8.24l-17.49-9.91c0.5,0.04,1.02,0.08,1.55,0.08h13.67
		c0.76-0.01,1.52-0.07,2.27-0.18c1.01-0.14,2.01-0.37,2.98-0.69c6.68-2.25,11.19-8.52,11.19-15.57v-28.27
		c-0.01-1.5-0.22-2.99-0.63-4.44c-0.17-0.52-0.39-1.03-0.64-1.52c-4.68,1.22-26.48,6.36-37.7-0.96c-0.27,0.1-0.54,0.19-0.81,0.29
		c-0.26,3.05,0.46,15.42-1.87,19.64c-1.01-2.25-2.74-4.1-4.92-5.25v0.01c-1.29-0.62-2.7-0.95-4.13-0.94l0,0
		c-5.3-0.01-9.6,4.28-9.61,9.58c-0.01,5.11,4,9.34,9.11,9.6c0.16,0.01,0.33,0.02,0.5,0.02c1.4,0,2.78-0.31,4.04-0.9
		c0.03-0.01,0.07-0.03,0.1-0.04c0.83-0.39,1.6-0.91,2.28-1.53c0.07,2.42-0.16,6.11-1.99,7.77c-0.12,0.11-0.25,0.22-0.4,0.31v30.59
		c-0.19-0.01-0.37-0.01-0.56-0.02c-2.09-0.24-4.1-0.4-6.03-0.49C191.31,616.7,193.62,619.78,196.69,621.95z M232.56,581.37
		c-0.67,1.55-1.87,2.8-3.39,3.52c-0.93,0.41-1.94,0.62-2.96,0.6c-4.61,0-6.97-2.19-7.76-4.18c-0.21-0.55,0.06-1.18,0.62-1.39
		c0.12-0.05,0.26-0.07,0.39-0.07h12.14c0.59,0.01,1.07,0.5,1.06,1.1C232.65,581.1,232.62,581.24,232.56,581.37L232.56,581.37z
		 M235,559.63c0.11-1,1.01-1.71,2.01-1.6c0,0,0,0,0,0l4.29,0.49c1,0.11,1.72,1.01,1.61,2c-0.11,1-1.01,1.72-2,1.61
		c0,0-0.01,0-0.01,0l-4.29-0.49c-0.99-0.11-1.71-1-1.61-1.99C235,559.64,235,559.64,235,559.63L235,559.63z M234.84,565.7
		c0.79-0.89,1.91-1.39,3.1-1.39c1.2,0.06,2.34,0.56,3.21,1.41c0.32,0.31,0.33,0.81,0.02,1.13c-0.31,0.32-0.81,0.33-1.13,0.02
		c-0.01-0.01-0.02-0.02-0.03-0.03c-0.56-0.54-1.3-0.87-2.08-0.92l0,0c-0.74,0.03-1.44,0.36-1.93,0.92
		c-0.15,0.15-0.36,0.23-0.57,0.23c-0.21,0-0.42-0.08-0.57-0.23c-0.32-0.29-0.34-0.79-0.04-1.1
		C234.82,565.71,234.83,565.7,234.84,565.7L234.84,565.7z M228.93,575.03h2.37l-1.23-9.32c-0.06-0.44,0.25-0.84,0.69-0.9
		c0.44-0.06,0.84,0.25,0.9,0.69l1.35,10.23c0.03,0.23-0.04,0.46-0.19,0.64c-0.15,0.18-0.37,0.28-0.6,0.27h-3.29
		c-0.44,0-0.8-0.36-0.8-0.8C228.13,575.4,228.48,575.04,228.93,575.03L228.93,575.03z M224.91,567.04c-0.32,0.3-0.82,0.3-1.13-0.01
		c-0.8-0.77-1.85-1.24-2.96-1.32h-0.01c-1.07,0.04-2.07,0.52-2.78,1.32c-0.15,0.15-0.36,0.23-0.57,0.23c-0.21,0-0.42-0.08-0.57-0.23
		c-0.31-0.3-0.32-0.8-0.02-1.12c0.01-0.01,0.01-0.01,0.02-0.02c1.02-1.1,2.44-1.75,3.94-1.79c1.54,0.08,2.99,0.72,4.1,1.8
		C225.23,566.22,225.22,566.72,224.91,567.04L224.91,567.04z M214.51,559.45l7.96-1.84c0.98-0.21,1.95,0.41,2.16,1.39
		c0.21,0.96-0.39,1.92-1.35,2.15l-7.96,1.84c-0.98,0.21-1.95-0.41-2.16-1.39C212.95,560.63,213.55,559.68,214.51,559.45z
		 M194.58,570.07c-0.05,0.4-0.39,0.7-0.79,0.7h-0.1c-0.44-0.05-0.75-0.45-0.7-0.89c0,0,0,0,0,0c0.21-1.7-0.09-2.92-0.86-3.62
		c-1.31-1.19-3.68-0.68-3.7-0.67c-0.43,0.1-0.86-0.17-0.96-0.6c-0.1-0.43,0.17-0.86,0.6-0.96c0.13-0.03,3.2-0.7,5.13,1.04
		C194.38,566.12,194.85,567.81,194.58,570.07L194.58,570.07z"/>
	<path id="Tracé_470" class="st7" d="M199.07,574.99c-0.68,0.62-1.45,1.13-2.28,1.53c-0.03,0.01-0.07,0.03-0.1,0.04v6.51
		c0.14-0.09,0.27-0.19,0.4-0.31C198.9,581.11,199.13,577.41,199.07,574.99z"/>
	<path id="Tracé_471" class="st5" d="M331.61,612.08c5.66-8.24,3.58-19.51-4.66-25.17c-2.8-1.92-6.09-3.02-9.48-3.17
		c-0.26-0.01-0.54-0.02-0.8-0.02c-7.19,0-13.69,4.24-16.59,10.82c-1.62-1.19-3.53-1.92-5.53-2.11c-0.85-0.07-1.69,0.15-2.41,0.61
		c-0.14,0.09-0.27,0.2-0.4,0.32c-2.11,2.11-0.57,7.07,3.45,11.09c1.27,1.28,2.72,2.36,4.32,3.21c0.41,1.22,0.95,2.38,1.61,3.48
		v36.87h30.5v-35.93L331.61,612.08z"/>
	<path id="Tracé_472" class="st1" d="M294.54,559.23c0-1.81,1.46-3.27,3.27-3.27h-2.5c-1.75,0-3.17,1.42-3.17,3.17v33.9
		c0.71-0.46,1.56-0.68,2.41-0.61L294.54,559.23z"/>
	<path id="Tracé_473" class="st10" d="M294.54,559.23v33.18c2,0.19,3.91,0.92,5.53,2.11c2.9-6.57,9.41-10.82,16.59-10.82
		c0.27,0,0.54,0.01,0.8,0.02v-24.5c0-1.81-1.47-3.27-3.27-3.27H297.8C295.99,555.96,294.53,557.42,294.54,559.23z"/>
	<path id="Tracé_474" class="st11" d="M228.93,576.63h3.29c0.23,0,0.45-0.1,0.6-0.27c0.15-0.17,0.22-0.41,0.19-0.64l-1.35-10.23
		c-0.06-0.44-0.46-0.75-0.9-0.69c-0.44,0.06-0.75,0.46-0.69,0.9l1.23,9.32h-2.37c-0.44,0-0.8,0.36-0.8,0.8
		C228.13,576.26,228.48,576.62,228.93,576.63z"/>
	<path id="Tracé_475" class="st11" d="M216.88,565.89c-0.31,0.3-0.32,0.8-0.02,1.12c0.01,0.01,0.01,0.01,0.02,0.02
		c0.15,0.15,0.36,0.23,0.57,0.23c0.21,0,0.42-0.08,0.57-0.23c0.71-0.8,1.71-1.27,2.78-1.32h0.01c1.11,0.07,2.17,0.54,2.96,1.32
		c0.31,0.32,0.81,0.32,1.13,0.01c0,0,0,0,0,0c0.32-0.3,0.33-0.8,0.03-1.12c-0.01-0.01-0.01-0.01-0.02-0.02
		c-1.1-1.08-2.56-1.72-4.1-1.8C219.32,564.14,217.9,564.79,216.88,565.89z"/>
	<path id="Tracé_476" class="st11" d="M235.41,567.07c0.21,0,0.42-0.08,0.57-0.23c0.49-0.56,1.19-0.89,1.93-0.92l0,0
		c0.78,0.05,1.52,0.38,2.08,0.92c0.31,0.32,0.81,0.32,1.13,0.01c0,0,0,0,0,0c0.32-0.3,0.33-0.8,0.03-1.12
		c-0.01-0.01-0.01-0.01-0.02-0.02c-0.86-0.84-2-1.34-3.21-1.41c-1.18,0.01-2.31,0.51-3.1,1.39c-0.31,0.3-0.32,0.8-0.02,1.12
		c0.01,0.01,0.01,0.01,0.02,0.02C234.98,566.98,235.19,567.06,235.41,567.07z"/>
	<path id="Tracé_477" class="st7" d="M215.32,562.98l7.96-1.84c0.98-0.21,1.6-1.18,1.39-2.16c-0.21-0.98-1.18-1.6-2.16-1.39
		c-0.02,0-0.03,0.01-0.05,0.01l-7.96,1.84c-0.97,0.23-1.58,1.2-1.36,2.17c0.21,0.97,1.17,1.58,2.14,1.37
		C215.3,562.99,215.31,562.99,215.32,562.98z"/>
	<path id="Tracé_478" class="st7" d="M236.59,561.64l4.29,0.49c1,0.12,1.9-0.6,2.02-1.6c0.12-1-0.6-1.9-1.6-2.02c0,0-0.01,0-0.01,0
		l-4.29-0.49c-1-0.12-1.9,0.6-2.02,1.6c-0.12,1,0.6,1.9,1.6,2.02C236.58,561.64,236.59,561.64,236.59,561.64z"/>
	<path id="Tracé_479" class="st7" d="M196.78,559.2c2.18,1.15,3.91,3,4.92,5.25c2.33-4.23,1.6-16.59,1.87-19.65
		c-4.94,1.76-8.77,3.4-10.21,4.05l-0.71,0.63l-0.11-0.25c0-0.01-0.1-0.24-0.23-0.64l0.35,9.68l0,0
		C194.09,558.25,195.5,558.57,196.78,559.2z"/>
	<path id="Tracé_480" class="st7" d="M204.37,544.51c11.22,7.31,33.02,2.17,37.7,0.96C236.81,535.29,217.24,540.03,204.37,544.51z"
		/>
	<path id="Tracé_481" class="st3" d="M192.63,549.47l0.71-0.63c-0.41,0.19-0.64,0.29-0.64,0.29s13.83-20.68,34.33-25.41
		c-4.77-2.04-10.26-2.39-16.37-1.05c-8.83,1.94-14.75,5.7-17.58,11.17c-3.2,6.15-1.46,12.7-0.79,14.73c0.13,0.4,0.22,0.63,0.23,0.64
		L192.63,549.47z"/>
	<path id="Tracé_482" class="st4" d="M192.72,549.14c0,0,0.23-0.11,0.64-0.29c1.45-0.65,5.27-2.31,10.21-4.05
		c0.26-0.1,0.54-0.19,0.81-0.29c12.86-4.48,32.44-9.22,37.7,0.96c0.25,0.49,0.46,0.99,0.64,1.52c0.19,0.55,0.33,1.12,0.44,1.69
		c0.32-1.1,24.74-21.59-2.83-25.53c-4.42-0.63-8.92-0.42-13.26,0.6C206.55,528.46,192.72,549.14,192.72,549.14z"/>
	<path id="Tracé_483" class="st11" d="M188.07,564c-0.43,0.1-0.7,0.53-0.6,0.96c0.1,0.43,0.52,0.7,0.96,0.6
		c0.02,0,2.39-0.52,3.7,0.67c0.78,0.7,1.07,1.92,0.86,3.62c-0.05,0.44,0.26,0.83,0.69,0.89c0,0,0.01,0,0.01,0h0.1
		c0.4,0,0.74-0.3,0.79-0.7c0.27-2.25-0.2-3.94-1.38-5.02C191.26,563.31,188.2,563.98,188.07,564z"/>
	<path id="Tracé_484" class="st10" d="M177.46,753.71c3.45-0.21,84.1-5.17,91.76-8.25c0.04-0.02,0.1-0.03,0.13-0.06
		c4.34-1.93,4.69-7.54,4.19-11.98c-0.22-1.99-0.61-3.95-1.17-5.86l-9.97-61.25c-0.07-0.44-0.49-0.73-0.92-0.66
		c-0.44,0.07-0.73,0.49-0.66,0.92l9.98,61.3c0.01,0.03,0.01,0.07,0.02,0.11c0.04,0.13,3.97,13.24-2.13,15.97
		c-5.3,2.36-62.06,6.37-91.33,8.16c-0.42,0.03-0.75,0.38-0.75,0.8c0,0.02-0.01,0.03-0.01,0.04c0.03,0.4,0.35,0.72,0.75,0.75
		c0.02,0,0.03,0.01,0.05,0.01L177.46,753.71z"/>
	<path id="Tracé_485" class="st10" d="M169.98,747.62l10.83-85.2c0.06-0.44-0.25-0.84-0.69-0.9c-0.44-0.06-0.84,0.25-0.9,0.69
		l-10.83,85.2c-0.05,0.44,0.25,0.84,0.69,0.9l0,0c0.03,0,0.07,0.01,0.1,0.01c0.02,0,0.04-0.01,0.05-0.01
		C169.61,748.29,169.93,748,169.98,747.62z"/>
	<path id="Tracé_486" class="st10" d="M154.77,793.34l-30.14-4.72c-0.44-0.07-0.85,0.23-0.92,0.67l0,0
		c-0.06,0.43,0.23,0.84,0.66,0.91h0.01l30.12,4.71h0.01c0.04,0.01,0.08,0.01,0.12,0.01c0.39,0,0.73-0.29,0.79-0.68l0,0
		c0.08-0.42-0.2-0.82-0.61-0.89C154.8,793.34,154.78,793.34,154.77,793.34z"/>
	<path id="Tracé_487" class="st10" d="M300.95,658.04L300.95,658.04l30.7-0.23c0.34,0,0.64-0.22,0.75-0.55
		c0.04-0.08,0.05-0.17,0.05-0.26c0-0.44-0.36-0.8-0.8-0.8h-0.01l-30.69,0.23h-0.01c-0.45,0-0.8,0.37-0.8,0.81
		c0,0.11,0.02,0.21,0.07,0.31C300.33,657.84,300.63,658.04,300.95,658.04z"/>
	<path id="Tracé_488" class="st10" d="M293.71,683.29l1.3,28.77c0.02,0.43,0.37,0.77,0.8,0.77h0.03c0.44-0.02,0.78-0.39,0.77-0.83
		l-1.3-28.77c-0.03-0.42-0.38-0.76-0.8-0.76c-0.01,0-0.02-0.01-0.03-0.01c-0.17,0.02-0.33,0.08-0.46,0.19
		C293.82,682.79,293.7,683.03,293.71,683.29z"/>
	<path id="Tracé_489" class="st2" d="M265.78,993.12L265.78,993.12l40.62-0.18c0.44,0,0.8-0.36,0.8-0.8l0,0
		c0-0.44-0.36-0.8-0.8-0.8h-0.12l-40.5,0.18c-0.07,0-0.13,0.02-0.2,0.04c-0.35,0.09-0.6,0.4-0.6,0.77c0,0.08,0.02,0.15,0.04,0.22
		C265.12,992.89,265.43,993.12,265.78,993.12z"/>
	<path id="Tracé_490" class="st2" d="M161.32,995.66h-0.08c-0.44,0-0.8,0.36-0.8,0.8c0,0.01,0.01,0.02,0.01,0.03
		c0.02,0.43,0.36,0.77,0.79,0.77h44.52c0.44,0,0.8-0.36,0.8-0.8l0,0c-0.01-0.37-0.26-0.69-0.63-0.77c-0.06-0.02-0.12-0.03-0.18-0.03
		L161.32,995.66z"/>
	<path id="Tracé_491" class="st6" d="M190.99,1056.86L190.99,1056.86l-1.14,10.46c-2.11-0.6-7.24-1.39-13.73,2.47
		c-0.38,0.22-0.51,0.71-0.29,1.1c0.14,0.25,0.41,0.4,0.69,0.4c0.14,0,0.28-0.04,0.41-0.11c7.62-4.52,13.03-2.13,13.25-2.02
		c0.24,0.11,0.51,0.1,0.74-0.02c0.18-0.1,0.32-0.28,0.37-0.48l0.03-0.13l1.25-11.48c0.04-0.34-0.15-0.66-0.46-0.8
		c-0.08-0.04-0.17-0.06-0.25-0.08c-0.42-0.06-0.82,0.24-0.88,0.66C190.99,1056.83,190.99,1056.85,190.99,1056.86z"/>
	<path id="Tracé_492" class="st6" d="M314.96,1049.81c-0.22,0.15-0.36,0.4-0.36,0.67c-0.01,0.15,0.03,0.31,0.11,0.44l6.62,10.52
		c-3.91-0.5-13.14-1.06-16.86,4.05c-0.26,0.35-0.19,0.85,0.16,1.11c0,0,0.01,0.01,0.01,0.01c0.14,0.1,0.3,0.15,0.47,0.15
		c0.26,0,0.5-0.12,0.65-0.33c4.07-5.6,16.9-3.16,17.03-3.14c0.31,0.06,0.63-0.07,0.81-0.33c0.07-0.12,0.12-0.25,0.13-0.38
		c0.01-0.18-0.02-0.35-0.11-0.5l-7.57-12.02c-0.12-0.19-0.32-0.32-0.55-0.35C315.33,1049.67,315.13,1049.71,314.96,1049.81z"/>
</g>
</svg>
