<?xml version="1.0" encoding="utf-8"?>
<!-- Generator: Adobe Illustrator 25.0.1, SVG Export Plug-In . SVG Version: 6.00 Build 0)  -->
<svg version="1.1" id="Calque_1" xmlns="http://www.w3.org/2000/svg" xmlns:xlink="http://www.w3.org/1999/xlink" x="0px" y="0px"
	 viewBox="0 0 173.59 166.36" style="enable-background:new 0 0 173.59 166.36;" xml:space="preserve">
<style type="text/css">
	.st0{fill:none;}
	.st1{fill:url(#Tracé_563_1_);}
	.st2{fill:#C1C2C4;}
	.st3{fill:#F0A5A4;}
	.st4{fill:#422934;}
	.st5{fill:#63283F;}
	.st6{fill:#F38024;}
	.st7{fill:#E5AF41;}
	.st8{fill:#41454B;}
	.st9{fill:#46494C;}
	.st10{fill:#8F9596;}
	.st11{fill:#808184;}
	.st12{fill:#FFB81B;}
	.st13{fill:#FFFFFF;}
	.st14{fill:#FFAC15;}
	.st15{fill:#FDA11C;}
	.st16{fill:#141F42;}
	.st17{fill:url(#Tracé_605_1_);}
	.st18{fill:#222C56;}
	.st19{fill:#D4EDF8;}
	.st20{fill:#DF918D;}
	.st21{fill:#F2F0F0;}
	.st22{fill:#E39E2C;}
	.st23{fill:#E39D2B;}
</style>
<g id="Groupe_375" transform="translate(0)">
	<g id="Groupe_373" transform="translate(0 0)">
		<path id="Tracé_557" class="st0" d="M78.49,89.42l-0.04,0.01L78.49,89.42L78.49,89.42z"/>
		<path id="Tracé_558" class="st0" d="M127.48,125.28c0.06,0.08,0.11,0.17,0.17,0.25l0.68-0.47h-0.88L127.48,125.28z"/>
		<path id="Tracé_559" class="st0" d="M63.85,92.79l0.32,1.66c0.3-0.7,0.68-1.35,1.15-1.95L63.85,92.79z"/>
		<path id="Tracé_560" class="st0" d="M66.01,104.25c-0.2-0.15-0.39-0.31-0.57-0.48l1.5,7.84c0.08,0.13,0.14,0.28,0.18,0.43
			l2.17,8.98c0.11,0.47,0.01,0.97-0.27,1.36c1.98,6.4,1.96,8.98,1.89,9.7c0.33,0.22,0.53,0.59,0.53,0.98c0,0.37-0.17,0.72-0.46,0.95
			h0.07c2.47-2.13,6.61-7.13,3.26-15.02c-2.48-5.84-3.62-10.17-2.69-13.23h-1.21C68.82,105.75,67.28,105.22,66.01,104.25z"/>
		<path id="Tracé_561" class="st0" d="M55.04,134.04c0.31-4.77,6.36-6.31,6.36-6.31l-0.22-2.03c-2.17-0.96-3.73-2.92-4.17-5.25
			l-6.02-31.44c-0.75-3.93,1.82-7.72,5.75-8.47c0,0,0,0,0,0c0.3-0.05,0.6-0.09,0.9-0.11c0.29-0.1,0.58-0.18,0.88-0.24l5.91-1.16
			l-11.77,1.16c-0.65,0.06-1.3,0-1.92-0.19c-0.61,0.5-1.33,0.84-2.1,1c-1.2,0.3-2.44,0.43-3.68,0.38l0.69,0.59
			c0.9,0.77,1.01,2.13,0.23,3.04c-0.77,0.9-2.13,1.01-3.04,0.23l-1.78-1.52c-0.34,3.63-0.88,7.55-1.4,10.9
			c-0.89,5.74-0.51,11.61,1.12,17.19l3.5,11.96c1.38,4.71,6.64,7.24,10.76,10.41c0.04-0.05,0.08-0.09,0.13-0.13L55.04,134.04z"/>
		<path id="Tracé_562" class="st0" d="M119.36,102.97l-0.01,0.01l-0.02,0.03l1.23,8.91h2.94v12.82l33.13-22.66h-36.91
			c-0.01,0.02-0.02,0.04-0.03,0.06C119.59,102.43,119.48,102.7,119.36,102.97z"/>
		
			<linearGradient id="Tracé_563_1_" gradientUnits="userSpaceOnUse" x1="-161.7794" y1="338.3477" x2="-161.7794" y2="337.3477" gradientTransform="matrix(41.266 0 0 -33.8279 6817.7563 11509.8789)">
			<stop  offset="0" style="stop-color:#4B3991"/>
			<stop  offset="1" style="stop-color:#352A60"/>
		</linearGradient>
		<path id="Tracé_563" class="st1" d="M162.4,98.12V64.29h-0.23c-0.19,0.09-0.4,0.14-0.61,0.14h-39.59c-0.21,0-0.42-0.05-0.61-0.14
			h-0.23v33.73h40.72C162.04,98.03,162.23,98.06,162.4,98.12z"/>
		<path id="Tracé_564" class="st2" d="M126.04,111.71l-1.23-8.91c-0.27,0.56-0.59,1.08-0.97,1.57c0.69,2.41,1.2,4.86,1.53,7.34
			H126.04L126.04,111.71z"/>
		<path id="Tracé_565" class="st2" d="M127.43,125.07c0.05,0.07,0.1,0.14,0.14,0.21l-0.03-0.21H127.43z"/>
		<path id="Tracé_566" class="st2" d="M163.4,100.04c-0.15-0.49-0.52-0.87-1-1.04c-0.17-0.06-0.36-0.1-0.55-0.1h-41.58
			c0,0.69-0.07,1.38-0.22,2.05c-0.02,0.07-0.03,0.15-0.05,0.23c0,0.01-0.01,0.02-0.01,0.03c-0.07,0.28-0.15,0.55-0.24,0.82
			c-0.01,0.03-0.02,0.07-0.03,0.1h36.91l-33.12,22.66v0.19h-0.27l-0.68,0.47c0.6,0.9,1.15,1.83,1.65,2.79l38.57-26.38
			C163.35,101.44,163.61,100.71,163.4,100.04z"/>
		<path id="Tracé_567" class="st3" d="M59.45,42.28c0.37-0.27,0.75-0.51,1.16-0.72c1.1-0.72,2.09-1.44,2.77-1.95
			c0.15-0.11,0.32-0.19,0.51-0.23l-0.71-4.49c-0.89,0.13-1.81,0.03-2.65-0.28c-1.59,3.02-3.41,5.9-5.45,8.63
			c0.27,0.25,0.53,0.5,0.76,0.74c0.01,0,0.03-0.01,0.04-0.02C57.12,43.56,58.33,42.99,59.45,42.28z"/>
		<path id="Tracé_568" class="st3" d="M60.44,32.53c-1.03-1.09-1.69-2.48-1.89-3.97c-2.57-1.03-4.97-2.45-7.1-4.22h-9.02
			c-0.03,0-0.06-0.01-0.09-0.01c-0.5,1.16-1,2.44-1.42,3.79l-2.83,3.66c-0.36,0.47-0.28,1.14,0.19,1.5
			c0.08,0.06,0.16,0.11,0.26,0.15l1.18,0.48c-0.35,2.68,0.26,5.4,1.74,7.67c0.84,1.16,2.23,1.78,3.65,1.63
			c2.74-0.41,5.44-1.04,8.07-1.87c0.45-0.14,0.92-0.19,1.4-0.17l0.96,0.05l0.01,0.01c0.01-0.01,0.01-0.02,0.02-0.02
			C56.57,40.62,59.16,35.27,60.44,32.53z M42.96,28.83c0.4-0.44,0.97-0.7,1.56-0.71h0.01c0.61,0.03,1.19,0.29,1.63,0.72
			c0.18,0.18,0.17,0.47-0.01,0.65c0,0,0,0,0,0c-0.09,0.08-0.2,0.13-0.32,0.13c-0.12,0-0.24-0.05-0.33-0.14
			c-0.27-0.26-0.62-0.41-0.99-0.44l0,0c-0.35,0.02-0.68,0.17-0.91,0.44c-0.18,0.18-0.47,0.18-0.65,0c0,0,0,0,0,0
			c-0.25,0-0.46-0.07-0.46-0.33C42.5,28.9,42.71,28.69,42.96,28.83L42.96,28.83z M44.54,29.93L44.54,29.93z M46.78,36.93
			c-1.02,0.44-2.11,0.68-3.22,0.7c-0.79,0.04-1.58-0.15-2.27-0.53c-0.21-0.14-0.27-0.43-0.13-0.64c0.14-0.21,0.42-0.27,0.64-0.13
			c0.07,0.04,1.61,0.98,4.64-0.25c0.24-0.09,0.5,0.02,0.6,0.25C47.13,36.57,47.01,36.84,46.78,36.93L46.78,36.93z M48.16,27.59
			l-4.1-0.36c-0.5-0.04-0.87-0.49-0.83-0.99c0,0,0,0,0,0c0.04-0.5,0.49-0.87,0.99-0.83c0,0,0,0,0,0l4.1,0.36
			c0.5,0.04,0.87,0.49,0.83,0.99C49.11,27.27,48.67,27.64,48.16,27.59L48.16,27.59z M56.1,38.92L56.1,38.92
			c0,0.05,0.01,0.1,0.01,0.16C56.1,39.02,56.1,38.97,56.1,38.92L56.1,38.92z M56.1,29.39L56.1,29.39c0-0.05-0.01-0.1-0.01-0.16
			C56.09,29.28,56.1,29.33,56.1,29.39L56.1,29.39z M53.35,26.63c1.41,0,2.59,1.07,2.74,2.47C55.94,27.7,54.76,26.64,53.35,26.63
			L53.35,26.63z"/>
		<path id="Tracé_569" class="st4" d="M48.14,25.77l-4.1-0.36c-0.5-0.04-0.95,0.33-0.99,0.83c0,0,0,0,0,0
			c-0.04,0.5,0.33,0.95,0.83,0.99c0,0,0,0,0,0l4.1,0.36c0.5,0.04,0.95-0.33,0.99-0.83c0,0,0,0,0,0
			C49.01,26.26,48.64,25.82,48.14,25.77z"/>
		<path id="Tracé_570" class="st5" d="M43.56,29.48c0.23-0.27,0.56-0.42,0.91-0.44l0,0c0.37,0.03,0.72,0.18,0.99,0.44
			c0.09,0.09,0.21,0.14,0.33,0.14c0.12,0,0.23-0.05,0.32-0.13c0.18-0.18,0.19-0.47,0.01-0.65c0,0,0,0,0,0
			c-0.44-0.43-1.02-0.68-1.63-0.72h-0.01c-0.6,0.01-1.16,0.27-1.56,0.71c-0.18,0.18-0.18,0.47,0,0.65c0,0,0,0,0,0
			C43.08,29.66,43.38,29.66,43.56,29.48C43.56,29.48,43.56,29.48,43.56,29.48z"/>
		<path id="Tracé_571" class="st6" d="M43.73,142.04L43.73,142.04z"/>
		<path id="Tracé_572" class="st7" d="M38.12,72.76c-1.83,0.06-3.28,1.57-3.28,3.4c0,1.62,1.14,3.01,2.72,3.33h0.03
			c-0.17-0.15-0.23-0.42-0.26-1.13l-0.23-0.2l0,0c-0.9-0.77-1.01-2.13-0.23-3.04c0,0,0,0,0,0l0,0c0.53-0.62,1.36-0.88,2.15-0.68
			c1.08-0.74,2.23-1.35,3.44-1.84c-0.07-0.6-0.33-1.16-0.74-1.61c-1.52-1.27-2.39-2.3-3.47-2.02c-0.48,0.16-0.92,0.44-1.25,0.82
			c0.34-0.38,0.77-0.66,1.25-0.82C38.24,68.97,38.24,70.42,38.12,72.76z"/>
		<path id="Tracé_573" class="st8" d="M65.93,105.32L65.93,105.32c0.18,0.17,0.37,0.33,0.57,0.48
			C66.3,105.65,66.12,105.49,65.93,105.32z"/>
		<path id="Tracé_574" class="st8" d="M125.24,101.71c0.01-0.03,0.02-0.07,0.03-0.1c-0.02,0.06-0.04,0.11-0.06,0.17
			C125.22,101.76,125.23,101.74,125.24,101.71z"/>
		<path id="Tracé_575" d="M61.16,100.83c-0.4,0.06-0.81,0.11-1.21,0.16l0.83,4.31c0.18,0.17,0.37,0.33,0.57,0.48
			c1.26,0.97,2.8,1.5,4.39,1.52h55.65c1.99-0.02,3.88-0.85,5.24-2.29c0.22-0.23,0.43-0.47,0.62-0.73c0.38-0.49,0.7-1.02,0.97-1.57
			l0.02-0.03l0.01-0.01c0.13-0.27,0.24-0.54,0.34-0.82c0.02-0.05,0.04-0.11,0.06-0.17c0.09-0.27,0.17-0.54,0.24-0.82l0.01-0.03
			L61.16,100.83z"/>
		<path id="Tracé_576" class="st8" d="M75.17,89.63v-0.06h-0.04l-15.18,2.99c-0.46,0.6-0.85,1.25-1.15,1.95l1.2,6.29
			c0.41-0.05,0.81-0.11,1.21-0.16h67.73l-0.01,0.03c0-0.01,0.01-0.02,0.01-0.03c0.02-0.07,0.03-0.15,0.05-0.23
			c0.15-0.67,0.22-1.36,0.22-2.05v-0.02c0-1.05-0.17-2.1-0.51-3.1c-0.03-0.09-0.06-0.18-0.1-0.27c-0.04-0.09-0.07-0.18-0.1-0.27
			c-0.37-0.94-0.91-1.8-1.57-2.56c-0.43-0.51-0.93-0.95-1.49-1.32l0,0c-1.19-0.8-2.58-1.23-4.01-1.24H93.16
			C86.08,91.06,75.17,89.63,75.17,89.63z"/>
		<path id="Tracé_577" class="st9" d="M38.94,74.51c-0.79-0.2-1.62,0.07-2.15,0.68l0,0c-0.77,0.9-0.67,2.26,0.23,3.04l0,0l0.23,0.2
			c-0.01-0.37-0.02-0.86-0.03-1.51C37.39,75.89,38.03,75,38.94,74.51z"/>
		<path id="Tracé_578" class="st9" d="M46.3,84.18c0.77-0.9,0.67-2.26-0.23-3.04l-0.69-0.59c-1.18-0.03-2.33-0.37-3.34-0.99
			c-0.2,0.06-0.39,0.15-0.56,0.28c-0.42,0.42-0.1,2.12-0.07,2.51c0,0.14-0.02,0.27-0.08,0.4l0.14,0.12l1.78,1.52
			C44.16,85.18,45.52,85.08,46.3,84.18C46.3,84.18,46.3,84.18,46.3,84.18z"/>
		<path id="Tracé_579" d="M34,140.8c-0.03-3.37-1.91-6.44-4.89-8.01c-4.48-2.36-10.02-0.65-12.38,3.83c0,0,0,0,0,0
			c-0.63,1.2-2,1.83-3.32,1.51l-2.97-0.72c-2.56,7.1,0.23,15.03,6.68,18.96c7.49,4.56,17.26,2.19,21.82-5.3
			c1.16-1.9,1.9-4.02,2.18-6.22l-4.86-1.18C34.95,143.33,34.01,142.16,34,140.8z M27.59,150.59c-4.31,1.22-8.79-1.28-10.01-5.59
			c0,0,0,0,0,0c-1.22-4.31,1.28-8.79,5.59-10.01c4.31-1.22,8.79,1.28,10.01,5.59c0,0,0,0,0,0C34.4,144.89,31.9,149.37,27.59,150.59
			L27.59,150.59z"/>
		<path id="Tracé_580" class="st10" d="M23.17,135c-4.31,1.22-6.81,5.7-5.59,10.01c1.22,4.31,5.7,6.81,10.01,5.59c0,0,0,0,0,0
			c4.31-1.22,6.81-5.7,5.59-10.01C31.96,136.28,27.48,133.77,23.17,135C23.17,135,23.17,135,23.17,135z M30.15,146.55
			c-2.08,2.64-5.9,3.09-8.54,1.01c-2.64-2.08-3.09-5.9-1.01-8.53c0,0,0,0,0,0c2.08-2.64,5.9-3.09,8.53-1.01c0,0,0,0,0,0
			C31.78,140.1,32.23,143.92,30.15,146.55L30.15,146.55z"/>
		<path id="Tracé_581" class="st2" d="M29.14,138.02c-2.63-2.08-6.46-1.63-8.53,1.01c0,0,0,0,0,0c-2.08,2.64-1.63,6.46,1.01,8.53
			c2.64,2.08,6.46,1.63,8.53-1.01c0,0,0,0,0,0C32.23,143.92,31.78,140.1,29.14,138.02z M25.38,144.98c-1.21,0-2.18-0.98-2.18-2.19
			l0,0c0-1.21,0.98-2.18,2.18-2.19c1.21,0,2.18,0.98,2.18,2.19l0,0C27.56,144,26.59,144.98,25.38,144.98
			C25.38,144.98,25.38,144.98,25.38,144.98L25.38,144.98z"/>
		<path id="Tracé_582" class="st11" d="M25.38,140.61c-1.21,0-2.18,0.98-2.18,2.19c0,1.21,0.98,2.19,2.18,2.19c0,0,0,0,0,0
			c1.21,0,2.18-0.98,2.18-2.19l0,0C27.56,141.59,26.58,140.61,25.38,140.61C25.38,140.61,25.38,140.61,25.38,140.61z"/>
		<path id="Tracé_583" class="st12" d="M45.96,141.59c0.06-0.89,0.06-1.78,0-2.67c-0.57-9.02-6.95-16.63-15.73-18.76
			c-4.25-1.03-8.71-0.68-12.75,1c-4.95,2.05-8.92,5.95-11.04,10.87c-0.06,0.15-0.12,0.31-0.15,0.47c-0.12,0.51-0.11,1.03,0.04,1.53
			c0.09,0.03,0.17,0.05,0.26,0.07l5.81,1.41c1.5,0.36,3.06-0.34,3.77-1.71c1.78-3.39,5.28-5.52,9.11-5.56
			c5.75-0.06,10.46,4.56,10.51,10.31c0.01,1.54,1.07,2.88,2.57,3.24l5.81,1.41c0.19,0.05,0.39,0.08,0.59,0.09
			c-0.15,0.31-0.35,0.59-0.59,0.83c0.87-0.38,1.51-1.16,1.72-2.08l0,0C45.92,141.9,45.95,141.75,45.96,141.59z"/>
		<path id="Tracé_584" class="st7" d="M44.18,143.21l-5.81-1.41c-1.5-0.36-2.56-1.7-2.57-3.24c-0.06-5.75-4.76-10.37-10.51-10.31
			c-3.83,0.04-7.33,2.17-9.11,5.56c-0.72,1.37-2.27,2.07-3.77,1.71l-5.81-1.41c-0.09-0.02-0.17-0.05-0.26-0.07
			c-0.1-0.03-0.2-0.07-0.3-0.12c-0.04,1.4,0.91,2.64,2.27,2.97l2.15,0.52l2.97,0.72c1.32,0.32,2.69-0.3,3.32-1.51
			c2.36-4.48,7.9-6.19,12.38-3.83c0,0,0,0,0,0c2.98,1.57,4.86,4.65,4.89,8.01c0.01,1.36,0.94,2.53,2.26,2.85l4.86,1.18l0.25,0.06
			c1,0.24,2.05-0.05,2.79-0.77c0.24-0.24,0.44-0.52,0.59-0.83C44.57,143.28,44.37,143.25,44.18,143.21z"/>
		<path id="Tracé_585" class="st13" d="M128.69,111.99h-8.87c-2.36,0-4.68,0.64-6.7,1.86c0.59,0.2,1.17,0.43,1.74,0.67
			c5.13,2.16,9.55,5.72,12.76,10.26c0.05,0.07,0.1,0.14,0.15,0.21h1.26v-13L128.69,111.99z"/>
		<path id="Tracé_586" d="M106.28,150.78c-4.45,0.44-8.42-2.81-8.86-7.26c0,0,0-0.01,0-0.01c-0.04-0.39-0.05-0.78-0.03-1.17h-7.78
			c-0.11,4.34,1.57,8.54,4.64,11.61c6.2,6.2,16.26,6.2,22.46,0c3.07-3.07,4.75-7.26,4.64-11.61h-7.78
			C113.78,146.64,110.57,150.35,106.28,150.78z"/>
		<path id="Tracé_587" class="st10" d="M97.77,143.51c0.44,4.45,4.4,7.71,8.85,7.27c0,0,0.01,0,0.01,0c4.29-0.42,7.5-4.13,7.3-8.44
			h-2.04c0.01,0.12,0.02,0.25,0.02,0.38c0,3.36-2.72,6.08-6.08,6.08c-3.36,0-6.08-2.72-6.08-6.08l0,0c0-0.13,0.01-0.25,0.02-0.38
			h-2.04C97.73,142.73,97.74,143.12,97.77,143.51z"/>
		<path id="Tracé_588" class="st2" d="M105.92,148.79c3.36,0,6.08-2.72,6.08-6.08c0-0.13-0.01-0.25-0.02-0.38h-3.91
			c0.02,0.12,0.03,0.25,0.04,0.38c0,1.21-0.98,2.19-2.19,2.19c-1.21,0-2.18-0.98-2.18-2.19c0-0.13,0.01-0.25,0.03-0.38h-3.91
			c-0.01,0.12-0.02,0.25-0.02,0.38C99.84,146.07,102.56,148.79,105.92,148.79z"/>
		<path id="Tracé_589" class="st11" d="M106.07,144.9c1.21,0,2.19-0.98,2.19-2.19c0-0.13-0.01-0.25-0.04-0.38h-4.3
			c-0.02,0.12-0.03,0.25-0.03,0.38C103.88,143.92,104.86,144.9,106.07,144.9z"/>
		<path id="Tracé_590" class="st14" d="M80.25,142.34L80.25,142.34z"/>
		<path id="Tracé_591" class="st14" d="M75.74,142.34L75.74,142.34z"/>
		<path id="Tracé_592" class="st14" d="M127.5,142.34L127.5,142.34z"/>
		<path id="Tracé_593" class="st14" d="M129.16,126c-0.05-0.07-0.09-0.14-0.14-0.21c-0.05-0.07-0.1-0.14-0.15-0.21
			c-3.21-4.55-7.63-8.11-12.76-10.26c-0.57-0.24-1.15-0.46-1.74-0.67c-3.22-1.12-6.61-1.67-10.03-1.63c-1.3,0.01-2.6,0.11-3.89,0.3
			c-13.31,1.91-23.67,12.54-25.23,25.9h0.01c1.75-14.77,14.18-25.96,29.05-26.14c15.15-0.19,28.01,11.09,29.79,26.14h0.01
			c-0.41-3.55-1.46-6.99-3.1-10.17c-0.5-0.96-1.05-1.89-1.65-2.79C129.27,126.17,129.22,126.09,129.16,126z"/>
		<path id="Tracé_594" class="st12" d="M132.71,139.22h1.35c-1.78-15.05-14.64-26.33-29.79-26.14
			c-14.87,0.19-27.3,11.37-29.05,26.14H132.71L132.71,139.22z M93.24,128.46c0-0.9,0.73-1.63,1.63-1.63c0,0,0,0,0,0h19.95
			c0.9,0,1.63,0.73,1.63,1.63c0,0,0,0,0,0l0,0c0,0.9-0.73,1.63-1.63,1.63c0,0,0,0,0,0H94.87C93.97,130.09,93.24,129.36,93.24,128.46
			C93.24,128.46,93.24,128.46,93.24,128.46L93.24,128.46z M93.24,133.72c0-0.9,0.73-1.63,1.63-1.63c0,0,0,0,0,0h19.95
			c0.9,0,1.63,0.73,1.63,1.63c0,0,0,0,0,0c0,0.9-0.73,1.63-1.63,1.63c0,0,0,0,0,0H94.87C93.97,135.35,93.24,134.62,93.24,133.72
			C93.24,133.72,93.24,133.72,93.24,133.72L93.24,133.72z"/>
		<path id="Tracé_595" class="st15" d="M131.36,142.34L131.36,142.34z"/>
		<path id="Tracé_596" class="st15" d="M80.21,142.34L80.21,142.34z"/>
		<path id="Tracé_597" class="st7" d="M148.66,139.22h-57.5c1.56-13.36,11.92-23.99,25.23-25.9c1.29-0.19,2.59-0.29,3.89-0.3
			c3.41-0.04,6.8,0.51,10.03,1.63c2.02-1.22,4.34-1.86,6.7-1.86h5.6c-0.33-2.48-0.85-4.93-1.53-7.34c-0.19,0.25-0.4,0.5-0.62,0.73
			c-1.36,1.45-3.26,2.28-5.24,2.29H80.78c-0.93,3.05,0.21,7.39,2.69,13.23c3.35,7.89-0.79,12.89-3.26,15.02h-0.07
			c-0.18,0.13-0.39,0.21-0.61,0.21h-18c-0.62-0.02-1.1-0.54-1.08-1.15c0-0.28,0.1-0.55,0.28-0.77c-4.12-3.17-9.38-5.69-10.76-10.41
			l-3.5-11.96c-1.63-5.58-2.02-11.44-1.12-17.19c0.52-3.35,1.06-7.27,1.4-10.9l-0.14-0.12c-0.1,0.38-0.49,0.61-0.87,0.51
			c0,0,0,0,0,0c-0.47-0.15-0.58-0.22-0.62-1.33c-0.1,0.38-0.48,0.61-0.87,0.52c0,0,0,0-0.01,0c-0.46-0.14-0.58-0.22-0.62-1.26
			c-0.11,0.03-0.22,0.02-0.33-0.01c-0.47-0.15-0.58-0.22-0.62-1.33c-0.12,0.03-0.24,0.03-0.35-0.01c-0.13-0.03-0.25-0.09-0.36-0.17
			h-0.03c-1.58-0.32-2.72-1.72-2.72-3.33c0-1.83,1.45-3.33,3.28-3.4c0.12-2.34,0.12-3.79,0.12-3.79c-0.48,0.16-0.92,0.44-1.25,0.82
			c-1.6,1.87-2.98,3.9-4.13,6.07c0,0.02,0,0.05,0,0.07c0,2.8-1.41,5.41-3.75,6.95c-2.59,5.37-4.69,10.97-6.27,16.72
			c-0.48,1.82-0.53,4.25-0.96,6.62c-0.21,1.35-0.64,2.65-1.26,3.86c-0.77,1.44-1.99,2.59-3.47,3.28c-5.66,2.7-4.05,5.94-4.05,5.94
			h0.01c4.03-1.68,8.5-2.03,12.75-1c8.79,2.13,15.17,9.73,15.73,18.76c0.06,0.89,0.06,1.78,0,2.67c-0.01,0.15-0.04,0.3-0.07,0.45
			h41.86c0.26,0.19,0.58,0.3,0.91,0.3h64.27c0.86,0,1.56-0.7,1.56-1.56c0,0,0,0,0,0c0-0.86-0.7-1.56-1.56-1.56c0,0,0,0,0,0
			L148.66,139.22L148.66,139.22z"/>
		<path id="Tracé_598" class="st7" d="M95.88,129.44h19.95c0.9,0,1.63-0.73,1.63-1.63l0,0l0,0c0-0.9-0.73-1.63-1.63-1.63
			c0,0,0,0,0,0H95.88c-0.9,0-1.63,0.73-1.63,1.63c0,0,0,0,0,0l0,0C94.25,128.71,94.98,129.44,95.88,129.44
			C95.88,129.44,95.88,129.44,95.88,129.44z"/>
		<path id="Tracé_599" class="st7" d="M95.88,135.35h19.95c0.9,0,1.63-0.73,1.63-1.63c0,0,0,0,0,0c0-0.9-0.73-1.63-1.63-1.63
			c0,0,0,0,0,0H95.88c-0.9,0-1.63,0.73-1.63,1.63c0,0,0,0,0,0l0,0C94.25,134.62,94.98,135.35,95.88,135.35z"/>
		<path id="Tracé_600" class="st16" d="M44.37,29.94L44.37,29.94z"/>
		<path id="Tracé_601" class="st12" d="M54.47,39.61c0,0.05,0.01,0.1,0.01,0.16C54.48,39.72,54.47,39.67,54.47,39.61z"/>
		<path id="Tracé_602" class="st12" d="M54.47,29.38c0-0.05-0.01-0.1-0.01-0.16C54.46,29.28,54.47,29.33,54.47,29.38L54.47,29.38z"
			/>
		<path id="Tracé_603" class="st12" d="M51.97,26.63c1.41,0,2.59,1.07,2.74,2.47C54.56,27.7,53.38,26.63,51.97,26.63z"/>
		<path id="Tracé_604" d="M72.88,133.48c0-0.4-0.2-0.77-0.53-0.98c0.07-0.72,0.08-3.3-1.89-9.7c-0.24,0.34-0.61,0.58-1.02,0.67
			l-5.21,1.08c-0.26,0.08-0.52,0.15-0.79,0.2c-1.45,0.28-2.95,0.1-4.3-0.5l0.22,2.03c0,0-6.05,1.53-6.36,6.31h0.12
			c-0.05,0.04-0.09,0.08-0.13,0.13c-0.18,0.21-0.28,0.49-0.28,0.77c-0.02,0.62,0.46,1.13,1.08,1.15h18c0.22,0,0.44-0.07,0.61-0.21
			C72.71,134.2,72.89,133.85,72.88,133.48z"/>
		
			<linearGradient id="Tracé_605_1_" gradientUnits="userSpaceOnUse" x1="-162.7657" y1="343.1582" x2="-162.7657" y2="342.1582" gradientTransform="matrix(57.0798 0 0 -87.6699 9366.3984 30124.1445)">
			<stop  offset="0" style="stop-color:#4B3991"/>
			<stop  offset="1" style="stop-color:#352A60"/>
		</linearGradient>
		<path id="Tracé_605" class="st17" d="M64.58,60.75c-2.88,0.49-2.22-0.09-2.67-6.17c-0.48-6.54,1.78-11.41,6.46-12.25
			s7.11,6.04,7.11,6.04l2.42,6.98c0.53,1.45-0.22,3.05-1.67,3.58c-0.16,0.06-0.33,0.1-0.5,0.13c4.3,17.77-2.99,17.74-2.99,17.74
			l-0.23-0.23c-0.47,0.21-0.97,0.35-1.48,0.4L60.8,78.03l-5.91,1.21c-0.3,0.06-0.59,0.15-0.88,0.25c-0.3,0.02-0.6,0.06-0.9,0.11
			c-3.99,0.88-6.55,4.79-5.75,8.8l6.02,32.66c0.42,2.39,1.98,4.42,4.17,5.46c1.34,0.63,2.85,0.81,4.3,0.52
			c0.27-0.05,0.53-0.12,0.79-0.21l5.21-1.12c0.42-0.09,0.78-0.34,1.02-0.7c0.29-0.41,0.39-0.93,0.27-1.42l-2.17-9.33
			c-0.04-0.16-0.1-0.31-0.18-0.45l-1.5-8.14l0,0l-0.83-4.48l-1.2-6.54l-0.32-1.72l1.46-0.3l15.18-3.1l0.04-0.01v0.01v0.06
			c0,0,10.91,1.48,18-0.06c2.94-0.64,5.23-1.81,5.8-3.82c2.34-8.31-0.55-13.78-2.81-16.55c-0.14-7.69-8.67-22.95-30.96-29.3
			c-1.99-0.36-4.02-0.44-6.03-0.25l0.76,0.95c0.4,0.51,0.39,1.23-0.03,1.72l-8.16,9.47c-0.41,0.49-1.12,0.58-1.64,0.22
			c1.09,6.2,5.96,11.37,9.59,15.54l1.29-0.13L64.58,60.75z"/>
		<path id="Tracé_606" class="st18" d="M60.37,41.68c-0.4,0.21-0.79,0.45-1.16,0.72C59.61,42.16,59.99,41.92,60.37,41.68z"/>
		<path id="Tracé_607" class="st19" d="M57.92,52.03l8.16-9.12c0.42-0.47,0.43-1.17,0.03-1.65l-0.76-0.92L65,39.95
			c-0.3-0.36-0.77-0.52-1.22-0.43c-0.18,0.04-0.36,0.11-0.51,0.23c-0.68,0.51-1.67,1.23-2.77,1.95c-0.38,0.24-0.76,0.49-1.16,0.72
			c-1.12,0.71-2.32,1.27-3.58,1.69c-0.02,0-0.03,0.01-0.04,0.02c-0.6,0.18-0.97,0.78-0.88,1.39l0.88,5.87
			c0.05,0.36,0.25,0.67,0.55,0.87C56.8,52.6,57.5,52.5,57.92,52.03z"/>
		<path id="Tracé_608" d="M46.53,36.71c-3.03,1.23-4.57,0.3-4.64,0.25c-0.21-0.14-0.5-0.08-0.64,0.13
			c-0.14,0.21-0.08,0.5,0.13,0.64c0.69,0.38,1.48,0.56,2.27,0.53c1.11-0.02,2.2-0.26,3.22-0.7c0.24-0.1,0.35-0.36,0.25-0.6
			C47.03,36.73,46.76,36.62,46.53,36.71z"/>
		<path id="Tracé_609" class="st19" d="M78.2,55.63l-2.42-6.72c0,0-2.42-6.62-7.11-5.81s-6.95,5.49-6.46,11.79
			c0.45,5.85-0.21,6.41,2.67,5.94c0.22-0.04,0.46-0.08,0.73-0.12c2.34-0.41,7.17-1.07,10.43-1.5c1.47-0.19,2.5-1.54,2.31-3.01
			C78.32,56,78.27,55.82,78.2,55.63z"/>
		<path id="Tracé_610" class="st2" d="M161.56,64.02c0.21,0,0.42-0.05,0.61-0.14c0.49-0.23,0.8-0.73,0.8-1.27v-1.32
			c0-0.78-0.63-1.41-1.41-1.41h-39.59c-0.78,0-1.41,0.63-1.41,1.41v1.32c0,0.54,0.31,1.03,0.8,1.27c0.19,0.09,0.4,0.14,0.61,0.14
			H161.56z"/>
		<path id="Tracé_611" class="st4" d="M53.07,24.34h-0.96l-0.05,0.01v-0.01h-1.91c2.13,1.77,4.53,3.19,7.1,4.22v-0.03
			C57.15,26.26,55.34,24.43,53.07,24.34z"/>
		<path id="Tracé_612" class="st7" d="M50.66,24.34h1.91v0.01l0.05-0.01h0.96c2.27,0.1,4.08,1.92,4.18,4.19v0.03
			c0.19,1.49,0.85,2.88,1.89,3.97c0.62,0.65,1.38,1.15,2.21,1.47c0.85,0.31,1.76,0.41,2.66,0.28c1.46-0.24,2.81-0.91,3.88-1.93
			c2.75-2.5,4.41-5.97,4.63-9.67c0.03-0.17,0.03-0.34,0.01-0.51v-0.02c-1.1-8.37-8.24-14.62-16.68-14.62
			c-8.44,0-15.58,6.26-16.68,14.62c-0.13,1.07,0.63,2.05,1.7,2.18c0.05,0.01,0.11,0.01,0.16,0.01c0.03,0,0.06,0.01,0.09,0.01
			L50.66,24.34z"/>
		<path id="Tracé_613" class="st8" d="M58.6,33.12c-1.28,2.74-3.87,8.09-4.86,8.66c-0.01,0.01-0.01,0.02-0.02,0.02
			c-0.46,0.39,1.25,1.57,1.49,1.57c0.02,0,0.07-0.05,0.15-0.15c2.04-2.73,3.87-5.61,5.45-8.63C59.98,34.27,59.22,33.77,58.6,33.12z"
			/>
		<path id="Tracé_614" class="st19" d="M28.9,67.64c-4.6,0-8.33,3.73-8.33,8.33l0,0c0,3.94,2.76,7.34,6.62,8.15l2.95-16.39
			C29.72,67.67,29.31,67.64,28.9,67.64z"/>
		<path id="Tracé_615" class="st7" d="M37.23,75.98c0-0.02,0-0.05,0-0.07c-0.02-2.29-0.98-4.48-2.67-6.04
			c-1.23-1.14-2.77-1.88-4.42-2.13l-2.95,16.39c0.21,0.04,0.43,0.08,0.65,0.11c0.35,0.05,0.71,0.07,1.07,0.07
			c1.63,0,3.22-0.48,4.58-1.38C35.82,81.39,37.23,78.78,37.23,75.98z"/>
		<path id="Tracé_616" class="st20" d="M35.68,76.76c0.01,0.65,0.01,1.14,0.03,1.51c0.03,0.71,0.09,0.99,0.26,1.13
			c0.11,0.08,0.23,0.13,0.36,0.17c0.12,0.04,0.24,0.04,0.35,0.01c0.04,1.11,0.16,1.18,0.62,1.33c0.11,0.03,0.22,0.04,0.33,0.01
			c0.04,1.04,0.16,1.12,0.62,1.26c0.38,0.1,0.77-0.13,0.87-0.51c0,0,0,0,0-0.01c0.04,1.11,0.16,1.18,0.62,1.33
			c0.38,0.1,0.77-0.13,0.87-0.51c0,0,0,0,0,0c0.05-0.13,0.08-0.26,0.08-0.4c-0.03-0.39-0.36-2.09,0.07-2.51
			c0.17-0.13,0.36-0.23,0.56-0.28c1.01,0.62,2.16,0.96,3.34,0.99c1.24,0.05,2.48-0.08,3.68-0.38c0.91-0.21,2.24-0.59,2.24-0.59
			c1.09-0.12,1.11-0.15,1.78-0.21l11.77-1.16l10.24-1.01c0.57,0.02,1.15-0.03,1.71-0.17l0,0c0,0,7.29,0.03,2.99-17.08
			c-3.26,0.44-8.09,1.1-10.43,1.5c-0.27,0.05-0.51,0.09-0.73,0.12l0.84,6.37l-1.29,0.13l-16.07,1.59c-0.57-0.03-1.15,0.03-1.71,0.17
			l0,0c-2.63,0.49-5.19,1.32-7.61,2.48c-0.13,0.05-0.61,0.22-1.26,0.49c-1.21,0.49-2.36,1.11-3.44,1.84
			C36.49,74.85,35.85,75.74,35.68,76.76z"/>
	</g>
	<g id="Groupe_374" transform="translate(119.147 69.034)">
		<path id="Tracé_617" class="st21" d="M16.64,14.7c-0.1,0-0.2-0.04-0.27-0.11c-0.07-0.07-0.11-0.17-0.11-0.27V9.71
			c0-0.1,0.04-0.2,0.11-0.27c0.07-0.07,0.17-0.11,0.27-0.11h1.48c0.71-0.01,1.4,0.27,1.9,0.79c0.51,0.5,0.8,1.19,0.79,1.9
			c0.01,0.71-0.27,1.4-0.79,1.9c-0.5,0.51-1.19,0.8-1.9,0.79L16.64,14.7z M18.12,10.09h-1.1v3.84h1.1c0.51,0.01,1-0.2,1.36-0.56
			c0.37-0.36,0.57-0.85,0.56-1.36c0.01-0.51-0.2-1-0.56-1.36C19.13,10.29,18.64,10.08,18.12,10.09L18.12,10.09z"/>
		<path id="Tracé_618" class="st22" d="M24.24,11.51c-0.29-0.3-0.68-0.49-1.1-0.53c-0.42,0.04-0.81,0.23-1.1,0.53
			c-0.36,0.35-0.55,0.83-0.55,1.32c-0.01,0.5,0.19,0.98,0.55,1.32c0.29,0.3,0.68,0.49,1.09,0.53c0.32-0.03,0.63-0.15,0.88-0.35
			c0,0.08,0.01,0.16,0.06,0.23c0.14-0.06,0.28-0.13,0.4-0.23c-0.01,0.11,0.03,0.22,0.11,0.28c0.01,0.01,0.03,0.02,0.04,0.02
			c0.01-0.01,0.03-0.01,0.04-0.02c0.08-0.07,0.13-0.18,0.11-0.29v-1.52C24.79,12.32,24.59,11.85,24.24,11.51z M22.92,13.94
			c-0.29,0.01-0.58-0.11-0.78-0.32c-0.21-0.21-0.33-0.49-0.33-0.79c0-0.3,0.11-0.58,0.33-0.78c0.21-0.21,0.49-0.33,0.78-0.32
			c0.07,0,0.15,0.01,0.22,0.02c0.21,0.04,0.41,0.14,0.56,0.3c0.19,0.19,0.31,0.44,0.32,0.71c0,0.02,0,0.05,0,0.07v0.14
			c-0.03,0.25-0.14,0.48-0.32,0.65c-0.15,0.16-0.35,0.26-0.56,0.3C23.07,13.93,23,13.94,22.92,13.94z"/>
		<path id="Tracé_619" class="st21" d="M24.69,11.51c-0.35-0.36-0.83-0.56-1.32-0.55c-0.08,0-0.15,0-0.23,0.01
			c-0.42,0.04-0.81,0.23-1.1,0.53c-0.36,0.35-0.55,0.83-0.55,1.32c-0.01,0.5,0.19,0.98,0.55,1.32c0.29,0.3,0.68,0.49,1.09,0.53
			c0.08,0.01,0.15,0.01,0.23,0.01c0.24,0,0.48-0.04,0.71-0.14c0.14-0.06,0.28-0.13,0.4-0.23c-0.01,0.11,0.03,0.22,0.11,0.28
			c0.01,0.01,0.03,0.02,0.04,0.02c0.07,0.04,0.15,0.05,0.23,0.05c0.1,0,0.19-0.02,0.27-0.07c0.08-0.07,0.13-0.18,0.11-0.29v-1.52
			C25.24,12.32,25.04,11.85,24.69,11.51z M24.47,12.82v0.14c-0.03,0.25-0.14,0.48-0.32,0.65c-0.21,0.21-0.49,0.33-0.79,0.32
			c-0.08,0-0.15-0.01-0.22-0.02c-0.21-0.04-0.41-0.14-0.56-0.3c-0.21-0.21-0.33-0.49-0.33-0.79c0-0.3,0.11-0.58,0.33-0.78
			c0.15-0.15,0.34-0.26,0.56-0.3c0.08-0.01,0.15-0.02,0.23-0.02c0.3-0.01,0.58,0.11,0.79,0.32c0.19,0.19,0.31,0.44,0.32,0.71
			C24.48,12.77,24.47,12.8,24.47,12.82z"/>
		<path id="Tracé_620" class="st21" d="M25.24,12.85v-1.52c0.01-0.11-0.03-0.22-0.11-0.29c-0.08-0.05-0.17-0.08-0.27-0.08
			c-0.08,0-0.16,0.02-0.23,0.05c-0.02,0.01-0.03,0.01-0.04,0.02c-0.08,0.07-0.13,0.18-0.11,0.28c-0.12-0.09-0.26-0.17-0.4-0.23
			c-0.23-0.09-0.47-0.14-0.71-0.14c-0.08,0-0.15,0-0.23,0.01c-0.42,0.04-0.8,0.23-1.09,0.53c-0.36,0.35-0.55,0.82-0.55,1.32
			c-0.01,0.5,0.19,0.98,0.55,1.32c0.29,0.3,0.68,0.49,1.1,0.53c0.08,0.01,0.15,0.01,0.23,0.01c0.5,0.01,0.98-0.19,1.32-0.55
			C25.04,13.81,25.24,13.34,25.24,12.85z M24.48,12.91c-0.01,0.27-0.13,0.52-0.32,0.71c-0.21,0.21-0.49,0.33-0.79,0.32
			c-0.08,0-0.15-0.01-0.23-0.02c-0.21-0.04-0.4-0.15-0.56-0.3c-0.21-0.21-0.33-0.49-0.33-0.78c0-0.3,0.11-0.58,0.33-0.79
			c0.15-0.16,0.35-0.26,0.56-0.3c0.07-0.02,0.15-0.02,0.22-0.02c0.3,0,0.58,0.11,0.79,0.32c0.18,0.17,0.29,0.4,0.32,0.65v0.14
			C24.48,12.87,24.48,12.89,24.48,12.91L24.48,12.91z"/>
		<path id="Tracé_621" class="st21" d="M25.71,11.51c-0.03-0.06-0.05-0.12-0.05-0.18c0-0.1,0.04-0.2,0.11-0.26
			c0.07-0.07,0.17-0.11,0.27-0.11c0.1,0,0.2,0.04,0.27,0.11c0.04,0.04,0.07,0.09,0.09,0.14l1.15,2.29l1.14-2.29
			c0.02-0.05,0.05-0.1,0.09-0.14c0.07-0.07,0.17-0.11,0.27-0.11c0.1,0,0.19,0.04,0.26,0.11c0.07,0.07,0.11,0.17,0.11,0.26
			c0,0.06-0.01,0.11-0.04,0.17l-2.83,5.64c-0.03,0.05-0.06,0.1-0.1,0.14c-0.07,0.07-0.17,0.11-0.27,0.11c-0.1,0-0.2-0.04-0.27-0.11
			c-0.07-0.07-0.11-0.17-0.11-0.26c0-0.08,0.02-0.15,0.05-0.22l1.26-2.47L25.71,11.51z"/>
		<path id="Tracé_622" class="st21" d="M30.71,9.96c0.07,0.07,0.11,0.17,0.11,0.27v4.08c0,0.1-0.04,0.2-0.11,0.27
			c-0.07,0.07-0.17,0.11-0.27,0.11c-0.1,0-0.2-0.04-0.27-0.11c-0.07-0.07-0.11-0.17-0.11-0.27v-4.08c0-0.1,0.04-0.2,0.11-0.27
			c0.07-0.07,0.17-0.11,0.27-0.11C30.54,9.85,30.64,9.89,30.71,9.96z"/>
		<path id="Tracé_623" class="st21" d="M31.94,14.7c-0.1,0-0.2-0.04-0.27-0.11c-0.07-0.07-0.11-0.16-0.11-0.26l0.13-1.53
			l-0.13-1.36c0-0.1,0.04-0.19,0.11-0.26c0.07-0.07,0.17-0.11,0.27-0.11c0.1,0,0.2,0.04,0.27,0.11c0.07,0.07,0.11,0.16,0.11,0.26
			l-0.12,1.35l0.12,1.54c0,0.1-0.04,0.19-0.11,0.26C32.14,14.66,32.04,14.7,31.94,14.7z"/>
		<path id="Tracé_624" class="st23" d="M35.29,14.45c-0.02,0.05-0.05,0.1-0.09,0.13c-0.07,0.07-0.17,0.11-0.27,0.11
			c-0.1,0-0.19-0.04-0.26-0.11c-0.04-0.04-0.07-0.08-0.09-0.13l-1.46-2.92c-0.04-0.06-0.07-0.14-0.07-0.21c0-0.1,0.04-0.2,0.11-0.26
			c0.07-0.07,0.16-0.11,0.26-0.11c0.1,0,0.2,0.04,0.27,0.11c0.02,0.02,0.04,0.05,0.06,0.08l1.17,2.34l2.88-5.78
			c0,0,0.04-0.05,0.07-0.08c0.07-0.07,0.16-0.11,0.26-0.11c0.1,0,0.2,0.04,0.27,0.11c0.07,0.07,0.11,0.17,0.11,0.26
			c0,0.08-0.02,0.16-0.07,0.22L35.29,14.45z"/>
		<path id="Tracé_625" class="st21" d="M31.94,10.77c-0.11,0-0.21-0.05-0.27-0.14c-0.08-0.09-0.11-0.21-0.11-0.32
			c0-0.12,0.04-0.23,0.11-0.32c0.06-0.08,0.16-0.13,0.27-0.14c0.11,0,0.21,0.05,0.27,0.14c0.08,0.09,0.11,0.21,0.11,0.32
			c0,0.12-0.04,0.23-0.11,0.32C32.14,10.72,32.04,10.77,31.94,10.77z"/>
		<path id="Union_3" class="st22" d="M10.44,15.03c0-0.27,0.22-0.49,0.49-0.49c0.27,0,0.49,0.22,0.49,0.49s-0.22,0.49-0.49,0.49
			c0,0,0,0,0,0C10.66,15.52,10.44,15.3,10.44,15.03z M8.83,15.03c0-0.27,0.22-0.49,0.49-0.49c0.27,0,0.49,0.22,0.49,0.49
			c0,0.27-0.22,0.49-0.49,0.49l0,0C9.05,15.52,8.84,15.3,8.83,15.03z M7.53,14.23c-0.17,0-0.3-0.13-0.3-0.3c0-0.17,0.13-0.3,0.3-0.3
			h4.5l1.58-3.35h-1.79c-0.16-0.02-0.28-0.18-0.25-0.34c0.02-0.13,0.12-0.24,0.25-0.25h2.25c0.05,0,0.1,0.01,0.15,0.03
			c0.15,0.07,0.21,0.25,0.14,0.4c0,0,0,0,0,0l-1.86,3.93c-0.05,0.11-0.16,0.19-0.28,0.19L7.53,14.23z M7.66,12.81
			c-0.15-0.02-0.25-0.15-0.24-0.3c-0.02-0.15,0.09-0.28,0.24-0.3h3.99c0.15,0.02,0.25,0.15,0.23,0.3c0.02,0.15-0.09,0.28-0.23,0.3
			H7.66z M7.3,11.44c-0.17,0-0.3-0.13-0.3-0.3s0.13-0.3,0.3-0.3h0.43L7.55,9.75L6.32,9.91C6.15,9.93,6,9.82,5.98,9.65
			C5.96,9.49,6.08,9.34,6.24,9.32c0.03,0,0.05,0,0.08,0l1.51-0.16c0.13,0,0.24,0.09,0.28,0.21l0.21,1.47l3.92,0.01
			c0.17,0,0.3,0.13,0.3,0.3c0,0.17-0.13,0.3-0.3,0.3L7.3,11.44z"/>
	</g>
</g>
</svg>
